<mxfile host="Electron" agent="Mozilla/5.0 (Windows NT 10.0; Win64; x64) AppleWebKit/537.36 (KHTML, like Gecko) draw.io/24.1.0 Chrome/120.0.6099.109 Electron/28.1.0 Safari/537.36" modified="2025-03-11T10:01:28.457Z" etag="a74rEj58jQEo2Yce-Usl" version="24.1.0" type="device">
  <diagram name="Страница — 1" id="pASxOReFvpeN_ons6YVq">
    <mxGraphModel dx="840" dy="574" grid="0" gridSize="10" guides="1" tooltips="1" connect="1" arrows="1" fold="1" page="1" pageScale="1" pageWidth="827" pageHeight="1169" background="none" math="0" shadow="0">
      <root>
        <mxCell id="0" />
        <mxCell id="1" parent="0" />
        <mxCell id="KspUmnWx6zECCQGHvDuM-1" value="RPC=0&lt;br&gt;Sw5&lt;br&gt;ROOT" style="whiteSpace=wrap;html=1;aspect=fixed;" parent="1" vertex="1">
          <mxGeometry x="220" y="250" width="150" height="150" as="geometry" />
        </mxCell>
        <mxCell id="KspUmnWx6zECCQGHvDuM-4" value="RPC=8&lt;br style=&quot;border-color: var(--border-color);&quot;&gt;Sw3" style="whiteSpace=wrap;html=1;aspect=fixed;" parent="1" vertex="1">
          <mxGeometry x="220" y="520" width="150" height="150" as="geometry" />
        </mxCell>
        <mxCell id="KspUmnWx6zECCQGHvDuM-5" value="RPC=4&lt;br style=&quot;border-color: var(--border-color);&quot;&gt;Sw6" style="whiteSpace=wrap;html=1;aspect=fixed;" parent="1" vertex="1">
          <mxGeometry x="600" y="250" width="150" height="150" as="geometry" />
        </mxCell>
        <mxCell id="KspUmnWx6zECCQGHvDuM-6" value="RPC=6&lt;br&gt;Sw7" style="whiteSpace=wrap;html=1;aspect=fixed;" parent="1" vertex="1">
          <mxGeometry x="220" y="10" width="150" height="150" as="geometry" />
        </mxCell>
        <mxCell id="KspUmnWx6zECCQGHvDuM-7" value="RPC=6&lt;br style=&quot;border-color: var(--border-color);&quot;&gt;Sw8" style="whiteSpace=wrap;html=1;aspect=fixed;" parent="1" vertex="1">
          <mxGeometry x="600" y="10" width="150" height="150" as="geometry" />
        </mxCell>
        <mxCell id="KspUmnWx6zECCQGHvDuM-8" value="RPC=4&lt;br style=&quot;border-color: var(--border-color);&quot;&gt;Sw4" style="whiteSpace=wrap;html=1;aspect=fixed;" parent="1" vertex="1">
          <mxGeometry x="600" y="520" width="150" height="150" as="geometry" />
        </mxCell>
        <mxCell id="KspUmnWx6zECCQGHvDuM-9" value="1" style="whiteSpace=wrap;html=1;aspect=fixed;" parent="1" vertex="1">
          <mxGeometry x="240" y="520" width="30" height="30" as="geometry" />
        </mxCell>
        <mxCell id="KspUmnWx6zECCQGHvDuM-10" value="2" style="whiteSpace=wrap;html=1;aspect=fixed;" parent="1" vertex="1">
          <mxGeometry x="280" y="520" width="30" height="30" as="geometry" />
        </mxCell>
        <mxCell id="KspUmnWx6zECCQGHvDuM-11" value="3" style="whiteSpace=wrap;html=1;aspect=fixed;" parent="1" vertex="1">
          <mxGeometry x="320" y="520" width="30" height="30" as="geometry" />
        </mxCell>
        <mxCell id="KspUmnWx6zECCQGHvDuM-12" value="4" style="whiteSpace=wrap;html=1;aspect=fixed;" parent="1" vertex="1">
          <mxGeometry x="340" y="560" width="30" height="30" as="geometry" />
        </mxCell>
        <mxCell id="KspUmnWx6zECCQGHvDuM-13" value="5" style="whiteSpace=wrap;html=1;aspect=fixed;" parent="1" vertex="1">
          <mxGeometry x="340" y="600" width="30" height="30" as="geometry" />
        </mxCell>
        <mxCell id="KspUmnWx6zECCQGHvDuM-14" value="7" style="whiteSpace=wrap;html=1;aspect=fixed;" parent="1" vertex="1">
          <mxGeometry x="600" y="600" width="30" height="30" as="geometry" />
        </mxCell>
        <mxCell id="KspUmnWx6zECCQGHvDuM-15" value="8" style="whiteSpace=wrap;html=1;aspect=fixed;" parent="1" vertex="1">
          <mxGeometry x="600" y="560" width="30" height="30" as="geometry" />
        </mxCell>
        <mxCell id="KspUmnWx6zECCQGHvDuM-16" value="1" style="whiteSpace=wrap;html=1;aspect=fixed;" parent="1" vertex="1">
          <mxGeometry x="620" y="520" width="30" height="30" as="geometry" />
        </mxCell>
        <mxCell id="KspUmnWx6zECCQGHvDuM-17" value="2&lt;span style=&quot;color: rgba(0, 0, 0, 0); font-family: monospace; font-size: 0px; text-align: start; text-wrap: nowrap;&quot;&gt;%3CmxGraphModel%3E%3Croot%3E%3CmxCell%20id%3D%220%22%2F%3E%3CmxCell%20id%3D%221%22%20parent%3D%220%22%2F%3E%3CmxCell%20id%3D%222%22%20value%3D%221%22%20style%3D%22whiteSpace%3Dwrap%3Bhtml%3D1%3Baspect%3Dfixed%3B%22%20vertex%3D%221%22%20parent%3D%221%22%3E%3CmxGeometry%20x%3D%22610%22%20y%3D%22520%22%20width%3D%2230%22%20height%3D%2230%22%20as%3D%22geometry%22%2F%3E%3C%2FmxCell%3E%3C%2Froot%3E%3C%2FmxGraphModel%3E&lt;/span&gt;&lt;span style=&quot;color: rgba(0, 0, 0, 0); font-family: monospace; font-size: 0px; text-align: start; text-wrap: nowrap;&quot;&gt;%3CmxGraphModel%3E%3Croot%3E%3CmxCell%20id%3D%220%22%2F%3E%3CmxCell%20id%3D%221%22%20parent%3D%220%22%2F%3E%3CmxCell%20id%3D%222%22%20value%3D%221%22%20style%3D%22whiteSpace%3Dwrap%3Bhtml%3D1%3Baspect%3Dfixed%3B%22%20vertex%3D%221%22%20parent%3D%221%22%3E%3CmxGeometry%20x%3D%22610%22%20y%3D%22520%22%20width%3D%2230%22%20height%3D%2230%22%20as%3D%22geometry%22%2F%3E%3C%2FmxCell%3E%3C%2Froot%3E%3C%2FmxGraphModel%3E&lt;/span&gt;" style="whiteSpace=wrap;html=1;aspect=fixed;" parent="1" vertex="1">
          <mxGeometry x="660" y="520" width="30" height="30" as="geometry" />
        </mxCell>
        <mxCell id="KspUmnWx6zECCQGHvDuM-18" value="3" style="whiteSpace=wrap;html=1;aspect=fixed;" parent="1" vertex="1">
          <mxGeometry x="700" y="520" width="30" height="30" as="geometry" />
        </mxCell>
        <mxCell id="KspUmnWx6zECCQGHvDuM-19" value="6" style="whiteSpace=wrap;html=1;aspect=fixed;" parent="1" vertex="1">
          <mxGeometry x="620" y="370" width="30" height="30" as="geometry" />
        </mxCell>
        <mxCell id="KspUmnWx6zECCQGHvDuM-20" value="5" style="whiteSpace=wrap;html=1;aspect=fixed;" parent="1" vertex="1">
          <mxGeometry x="660" y="370" width="30" height="30" as="geometry" />
        </mxCell>
        <mxCell id="KspUmnWx6zECCQGHvDuM-21" value="4" style="whiteSpace=wrap;html=1;aspect=fixed;" parent="1" vertex="1">
          <mxGeometry x="700" y="370" width="30" height="30" as="geometry" />
        </mxCell>
        <mxCell id="KspUmnWx6zECCQGHvDuM-28" value="7" style="whiteSpace=wrap;html=1;aspect=fixed;" parent="1" vertex="1">
          <mxGeometry x="600" y="330" width="30" height="30" as="geometry" />
        </mxCell>
        <mxCell id="KspUmnWx6zECCQGHvDuM-29" value="8" style="whiteSpace=wrap;html=1;aspect=fixed;" parent="1" vertex="1">
          <mxGeometry x="600" y="290" width="30" height="30" as="geometry" />
        </mxCell>
        <mxCell id="KspUmnWx6zECCQGHvDuM-30" value="1" style="whiteSpace=wrap;html=1;aspect=fixed;" parent="1" vertex="1">
          <mxGeometry x="620" y="250" width="30" height="30" as="geometry" />
        </mxCell>
        <mxCell id="KspUmnWx6zECCQGHvDuM-34" value="2" style="whiteSpace=wrap;html=1;aspect=fixed;" parent="1" vertex="1">
          <mxGeometry x="660" y="250" width="30" height="30" as="geometry" />
        </mxCell>
        <mxCell id="KspUmnWx6zECCQGHvDuM-35" value="3" style="whiteSpace=wrap;html=1;aspect=fixed;" parent="1" vertex="1">
          <mxGeometry x="700" y="250" width="30" height="30" as="geometry" />
        </mxCell>
        <mxCell id="KspUmnWx6zECCQGHvDuM-37" value="1" style="whiteSpace=wrap;html=1;aspect=fixed;" parent="1" vertex="1">
          <mxGeometry x="240" y="250" width="30" height="30" as="geometry" />
        </mxCell>
        <mxCell id="KspUmnWx6zECCQGHvDuM-38" value="2" style="whiteSpace=wrap;html=1;aspect=fixed;" parent="1" vertex="1">
          <mxGeometry x="280" y="250" width="30" height="30" as="geometry" />
        </mxCell>
        <mxCell id="KspUmnWx6zECCQGHvDuM-39" value="3" style="whiteSpace=wrap;html=1;aspect=fixed;" parent="1" vertex="1">
          <mxGeometry x="320" y="250" width="30" height="30" as="geometry" />
        </mxCell>
        <mxCell id="KspUmnWx6zECCQGHvDuM-40" value="4" style="whiteSpace=wrap;html=1;aspect=fixed;" parent="1" vertex="1">
          <mxGeometry x="340" y="290" width="30" height="30" as="geometry" />
        </mxCell>
        <mxCell id="KspUmnWx6zECCQGHvDuM-41" value="5" style="whiteSpace=wrap;html=1;aspect=fixed;" parent="1" vertex="1">
          <mxGeometry x="340" y="330" width="30" height="30" as="geometry" />
        </mxCell>
        <mxCell id="KspUmnWx6zECCQGHvDuM-42" value="8" style="whiteSpace=wrap;html=1;aspect=fixed;" parent="1" vertex="1">
          <mxGeometry x="240" y="370" width="30" height="30" as="geometry" />
        </mxCell>
        <mxCell id="KspUmnWx6zECCQGHvDuM-43" value="7" style="whiteSpace=wrap;html=1;aspect=fixed;" parent="1" vertex="1">
          <mxGeometry x="280" y="370" width="30" height="30" as="geometry" />
        </mxCell>
        <mxCell id="KspUmnWx6zECCQGHvDuM-44" value="6" style="whiteSpace=wrap;html=1;aspect=fixed;" parent="1" vertex="1">
          <mxGeometry x="320" y="370" width="30" height="30" as="geometry" />
        </mxCell>
        <mxCell id="KspUmnWx6zECCQGHvDuM-46" value="2" style="whiteSpace=wrap;html=1;aspect=fixed;" parent="1" vertex="1">
          <mxGeometry x="340" y="40" width="30" height="30" as="geometry" />
        </mxCell>
        <mxCell id="KspUmnWx6zECCQGHvDuM-47" value="3" style="whiteSpace=wrap;html=1;aspect=fixed;" parent="1" vertex="1">
          <mxGeometry x="340" y="80" width="30" height="30" as="geometry" />
        </mxCell>
        <mxCell id="KspUmnWx6zECCQGHvDuM-48" value="4" style="whiteSpace=wrap;html=1;aspect=fixed;" parent="1" vertex="1">
          <mxGeometry x="340" y="120" width="30" height="30" as="geometry" />
        </mxCell>
        <mxCell id="KspUmnWx6zECCQGHvDuM-49" value="5" style="whiteSpace=wrap;html=1;aspect=fixed;" parent="1" vertex="1">
          <mxGeometry x="240" y="130" width="30" height="30" as="geometry" />
        </mxCell>
        <mxCell id="KspUmnWx6zECCQGHvDuM-50" value="1" style="whiteSpace=wrap;html=1;aspect=fixed;" parent="1" vertex="1">
          <mxGeometry x="600" y="40" width="30" height="30" as="geometry" />
        </mxCell>
        <mxCell id="KspUmnWx6zECCQGHvDuM-51" value="5" style="whiteSpace=wrap;html=1;aspect=fixed;" parent="1" vertex="1">
          <mxGeometry x="600" y="80" width="30" height="30" as="geometry" />
        </mxCell>
        <mxCell id="KspUmnWx6zECCQGHvDuM-52" value="4" style="whiteSpace=wrap;html=1;aspect=fixed;" parent="1" vertex="1">
          <mxGeometry x="600" y="120" width="30" height="30" as="geometry" />
        </mxCell>
        <mxCell id="KspUmnWx6zECCQGHvDuM-56" value="3" style="whiteSpace=wrap;html=1;aspect=fixed;" parent="1" vertex="1">
          <mxGeometry x="700" y="130" width="30" height="30" as="geometry" />
        </mxCell>
        <mxCell id="KspUmnWx6zECCQGHvDuM-57" value="" style="endArrow=none;dashed=1;html=1;rounded=0;entryX=0;entryY=0.5;entryDx=0;entryDy=0;exitX=1;exitY=0.5;exitDx=0;exitDy=0;" parent="1" source="KspUmnWx6zECCQGHvDuM-13" edge="1">
          <mxGeometry width="50" height="50" relative="1" as="geometry">
            <mxPoint x="441" y="615" as="sourcePoint" />
            <mxPoint x="601" y="615" as="targetPoint" />
          </mxGeometry>
        </mxCell>
        <mxCell id="KspUmnWx6zECCQGHvDuM-58" value="7&lt;div&gt;10GE&lt;/div&gt;" style="edgeLabel;html=1;align=center;verticalAlign=middle;resizable=0;points=[];" parent="KspUmnWx6zECCQGHvDuM-57" vertex="1" connectable="0">
          <mxGeometry x="-0.1018" y="-1" relative="1" as="geometry">
            <mxPoint x="8" y="-1" as="offset" />
          </mxGeometry>
        </mxCell>
        <mxCell id="KspUmnWx6zECCQGHvDuM-59" value="" style="endArrow=none;html=1;rounded=0;entryX=0;entryY=0.5;entryDx=0;entryDy=0;exitX=1;exitY=0.5;exitDx=0;exitDy=0;" parent="1" source="KspUmnWx6zECCQGHvDuM-12" edge="1">
          <mxGeometry width="50" height="50" relative="1" as="geometry">
            <mxPoint x="441" y="575" as="sourcePoint" />
            <mxPoint x="601" y="575" as="targetPoint" />
          </mxGeometry>
        </mxCell>
        <mxCell id="KspUmnWx6zECCQGHvDuM-60" value="8&lt;div&gt;1GE&lt;/div&gt;" style="edgeLabel;html=1;align=center;verticalAlign=middle;resizable=0;points=[];" parent="KspUmnWx6zECCQGHvDuM-59" vertex="1" connectable="0">
          <mxGeometry x="-0.0125" y="-1" relative="1" as="geometry">
            <mxPoint y="-1" as="offset" />
          </mxGeometry>
        </mxCell>
        <mxCell id="KspUmnWx6zECCQGHvDuM-62" value="" style="endArrow=none;dashed=1;html=1;rounded=0;entryX=0.5;entryY=1;entryDx=0;entryDy=0;exitX=0.5;exitY=0;exitDx=0;exitDy=0;" parent="1" source="KspUmnWx6zECCQGHvDuM-11" target="KspUmnWx6zECCQGHvDuM-19" edge="1">
          <mxGeometry width="50" height="50" relative="1" as="geometry">
            <mxPoint x="580" y="450" as="sourcePoint" />
            <mxPoint x="630" y="400" as="targetPoint" />
          </mxGeometry>
        </mxCell>
        <mxCell id="KspUmnWx6zECCQGHvDuM-63" value="9&lt;div&gt;10GE&lt;/div&gt;" style="edgeLabel;html=1;align=center;verticalAlign=middle;resizable=0;points=[];" parent="KspUmnWx6zECCQGHvDuM-62" vertex="1" connectable="0">
          <mxGeometry x="0.0247" y="1" relative="1" as="geometry">
            <mxPoint x="-62" y="32" as="offset" />
          </mxGeometry>
        </mxCell>
        <mxCell id="KspUmnWx6zECCQGHvDuM-64" value="" style="endArrow=none;html=1;rounded=0;entryX=0.5;entryY=1;entryDx=0;entryDy=0;exitX=0.5;exitY=0;exitDx=0;exitDy=0;" parent="1" source="KspUmnWx6zECCQGHvDuM-16" target="KspUmnWx6zECCQGHvDuM-44" edge="1">
          <mxGeometry width="50" height="50" relative="1" as="geometry">
            <mxPoint x="410" y="510" as="sourcePoint" />
            <mxPoint x="460" y="460" as="targetPoint" />
          </mxGeometry>
        </mxCell>
        <mxCell id="KspUmnWx6zECCQGHvDuM-65" value="10&lt;br&gt;1GE" style="edgeLabel;html=1;align=center;verticalAlign=middle;resizable=0;points=[];" parent="KspUmnWx6zECCQGHvDuM-64" vertex="1" connectable="0">
          <mxGeometry x="-0.3351" y="1" relative="1" as="geometry">
            <mxPoint x="16" y="9" as="offset" />
          </mxGeometry>
        </mxCell>
        <mxCell id="KspUmnWx6zECCQGHvDuM-66" value="" style="endArrow=none;dashed=1;html=1;rounded=0;exitX=0.5;exitY=0;exitDx=0;exitDy=0;entryX=0.5;entryY=1;entryDx=0;entryDy=0;" parent="1" source="KspUmnWx6zECCQGHvDuM-9" target="KspUmnWx6zECCQGHvDuM-42" edge="1">
          <mxGeometry width="50" height="50" relative="1" as="geometry">
            <mxPoint x="350" y="510" as="sourcePoint" />
            <mxPoint x="400" y="460" as="targetPoint" />
          </mxGeometry>
        </mxCell>
        <mxCell id="KspUmnWx6zECCQGHvDuM-67" value="11&lt;div&gt;10GE&lt;/div&gt;" style="edgeLabel;html=1;align=center;verticalAlign=middle;resizable=0;points=[];" parent="KspUmnWx6zECCQGHvDuM-66" vertex="1" connectable="0">
          <mxGeometry x="-0.15" y="1" relative="1" as="geometry">
            <mxPoint as="offset" />
          </mxGeometry>
        </mxCell>
        <mxCell id="KspUmnWx6zECCQGHvDuM-68" value="" style="endArrow=none;html=1;rounded=0;entryX=0.5;entryY=1;entryDx=0;entryDy=0;exitX=0.5;exitY=0;exitDx=0;exitDy=0;" parent="1" source="KspUmnWx6zECCQGHvDuM-17" target="KspUmnWx6zECCQGHvDuM-20" edge="1">
          <mxGeometry width="50" height="50" relative="1" as="geometry">
            <mxPoint x="610" y="490" as="sourcePoint" />
            <mxPoint x="660" y="440" as="targetPoint" />
          </mxGeometry>
        </mxCell>
        <mxCell id="KspUmnWx6zECCQGHvDuM-69" value="12&amp;nbsp;&lt;div&gt;1GE&lt;/div&gt;" style="edgeLabel;html=1;align=center;verticalAlign=middle;resizable=0;points=[];" parent="KspUmnWx6zECCQGHvDuM-68" vertex="1" connectable="0">
          <mxGeometry x="-0.0905" y="1" relative="1" as="geometry">
            <mxPoint x="1" y="2" as="offset" />
          </mxGeometry>
        </mxCell>
        <mxCell id="KspUmnWx6zECCQGHvDuM-70" value="" style="endArrow=none;dashed=1;html=1;rounded=0;entryX=0.5;entryY=1;entryDx=0;entryDy=0;exitX=0.5;exitY=0;exitDx=0;exitDy=0;" parent="1" source="KspUmnWx6zECCQGHvDuM-10" target="KspUmnWx6zECCQGHvDuM-43" edge="1">
          <mxGeometry width="50" height="50" relative="1" as="geometry">
            <mxPoint x="350" y="510" as="sourcePoint" />
            <mxPoint x="400" y="460" as="targetPoint" />
          </mxGeometry>
        </mxCell>
        <mxCell id="KspUmnWx6zECCQGHvDuM-71" value="13&lt;div&gt;10GE&lt;/div&gt;" style="edgeLabel;html=1;align=center;verticalAlign=middle;resizable=0;points=[];" parent="KspUmnWx6zECCQGHvDuM-70" vertex="1" connectable="0">
          <mxGeometry x="-0.2214" relative="1" as="geometry">
            <mxPoint y="-4" as="offset" />
          </mxGeometry>
        </mxCell>
        <mxCell id="KspUmnWx6zECCQGHvDuM-72" value="" style="endArrow=none;html=1;rounded=0;entryX=0.5;entryY=1;entryDx=0;entryDy=0;" parent="1" source="KspUmnWx6zECCQGHvDuM-18" target="KspUmnWx6zECCQGHvDuM-21" edge="1">
          <mxGeometry width="50" height="50" relative="1" as="geometry">
            <mxPoint x="420" y="510" as="sourcePoint" />
            <mxPoint x="470" y="460" as="targetPoint" />
          </mxGeometry>
        </mxCell>
        <mxCell id="KspUmnWx6zECCQGHvDuM-73" value="14&lt;div&gt;1GE&lt;/div&gt;" style="edgeLabel;html=1;align=center;verticalAlign=middle;resizable=0;points=[];" parent="KspUmnWx6zECCQGHvDuM-72" vertex="1" connectable="0">
          <mxGeometry x="-0.0905" relative="1" as="geometry">
            <mxPoint as="offset" />
          </mxGeometry>
        </mxCell>
        <mxCell id="KspUmnWx6zECCQGHvDuM-74" value="" style="endArrow=none;dashed=1;html=1;rounded=0;entryX=1;entryY=0.5;entryDx=0;entryDy=0;exitX=0;exitY=0.5;exitDx=0;exitDy=0;" parent="1" source="KspUmnWx6zECCQGHvDuM-28" target="KspUmnWx6zECCQGHvDuM-41" edge="1">
          <mxGeometry width="50" height="50" relative="1" as="geometry">
            <mxPoint x="420" y="410" as="sourcePoint" />
            <mxPoint x="470" y="360" as="targetPoint" />
          </mxGeometry>
        </mxCell>
        <mxCell id="KspUmnWx6zECCQGHvDuM-75" value="15&amp;nbsp;&lt;div&gt;10GE&lt;/div&gt;" style="edgeLabel;html=1;align=center;verticalAlign=middle;resizable=0;points=[];" parent="KspUmnWx6zECCQGHvDuM-74" vertex="1" connectable="0">
          <mxGeometry x="0.0054" y="2" relative="1" as="geometry">
            <mxPoint as="offset" />
          </mxGeometry>
        </mxCell>
        <mxCell id="KspUmnWx6zECCQGHvDuM-76" value="" style="endArrow=none;html=1;rounded=0;entryX=1;entryY=0.5;entryDx=0;entryDy=0;exitX=0;exitY=0.5;exitDx=0;exitDy=0;" parent="1" source="KspUmnWx6zECCQGHvDuM-29" target="KspUmnWx6zECCQGHvDuM-40" edge="1">
          <mxGeometry width="50" height="50" relative="1" as="geometry">
            <mxPoint x="600" y="305" as="sourcePoint" />
            <mxPoint x="443" y="305" as="targetPoint" />
          </mxGeometry>
        </mxCell>
        <mxCell id="KspUmnWx6zECCQGHvDuM-77" value="16&lt;div&gt;1GE&lt;/div&gt;" style="edgeLabel;html=1;align=center;verticalAlign=middle;resizable=0;points=[];" parent="KspUmnWx6zECCQGHvDuM-76" vertex="1" connectable="0">
          <mxGeometry x="-0.0214" y="3" relative="1" as="geometry">
            <mxPoint y="-3" as="offset" />
          </mxGeometry>
        </mxCell>
        <mxCell id="KspUmnWx6zECCQGHvDuM-78" value="" style="endArrow=none;dashed=1;html=1;rounded=0;exitX=0.5;exitY=0;exitDx=0;exitDy=0;entryX=0;entryY=0.5;entryDx=0;entryDy=0;" parent="1" source="KspUmnWx6zECCQGHvDuM-39" target="KspUmnWx6zECCQGHvDuM-52" edge="1">
          <mxGeometry width="50" height="50" relative="1" as="geometry">
            <mxPoint x="420" y="240" as="sourcePoint" />
            <mxPoint x="470" y="190" as="targetPoint" />
          </mxGeometry>
        </mxCell>
        <mxCell id="KspUmnWx6zECCQGHvDuM-79" value="17&lt;div&gt;10GE&lt;/div&gt;" style="edgeLabel;html=1;align=center;verticalAlign=middle;resizable=0;points=[];" parent="KspUmnWx6zECCQGHvDuM-78" vertex="1" connectable="0">
          <mxGeometry x="-0.0073" y="-1" relative="1" as="geometry">
            <mxPoint x="-22" y="16" as="offset" />
          </mxGeometry>
        </mxCell>
        <mxCell id="KspUmnWx6zECCQGHvDuM-80" value="19&lt;div&gt;10GE&lt;/div&gt;" style="endArrow=none;dashed=1;html=1;rounded=0;exitX=0.5;exitY=0;exitDx=0;exitDy=0;entryX=0;entryY=0.5;entryDx=0;entryDy=0;" parent="1" source="KspUmnWx6zECCQGHvDuM-38" target="KspUmnWx6zECCQGHvDuM-51" edge="1">
          <mxGeometry x="-0.3596" width="50" height="50" relative="1" as="geometry">
            <mxPoint x="390" y="225" as="sourcePoint" />
            <mxPoint x="590" y="100" as="targetPoint" />
            <mxPoint as="offset" />
          </mxGeometry>
        </mxCell>
        <mxCell id="KspUmnWx6zECCQGHvDuM-82" value="" style="endArrow=none;html=1;rounded=0;entryX=1;entryY=0.5;entryDx=0;entryDy=0;exitX=0.5;exitY=0;exitDx=0;exitDy=0;" parent="1" source="KspUmnWx6zECCQGHvDuM-30" target="KspUmnWx6zECCQGHvDuM-48" edge="1">
          <mxGeometry width="50" height="50" relative="1" as="geometry">
            <mxPoint x="420" y="240" as="sourcePoint" />
            <mxPoint x="470" y="190" as="targetPoint" />
          </mxGeometry>
        </mxCell>
        <mxCell id="KspUmnWx6zECCQGHvDuM-83" value="18&lt;div&gt;1GE&lt;/div&gt;" style="edgeLabel;html=1;align=center;verticalAlign=middle;resizable=0;points=[];" parent="KspUmnWx6zECCQGHvDuM-82" vertex="1" connectable="0">
          <mxGeometry x="-0.2087" y="-1" relative="1" as="geometry">
            <mxPoint x="11" y="6" as="offset" />
          </mxGeometry>
        </mxCell>
        <mxCell id="KspUmnWx6zECCQGHvDuM-84" value="" style="endArrow=none;html=1;rounded=0;entryX=1;entryY=0.5;entryDx=0;entryDy=0;exitX=0.5;exitY=0;exitDx=0;exitDy=0;" parent="1" source="KspUmnWx6zECCQGHvDuM-34" target="KspUmnWx6zECCQGHvDuM-47" edge="1">
          <mxGeometry width="50" height="50" relative="1" as="geometry">
            <mxPoint x="420" y="240" as="sourcePoint" />
            <mxPoint x="470" y="190" as="targetPoint" />
          </mxGeometry>
        </mxCell>
        <mxCell id="KspUmnWx6zECCQGHvDuM-85" value="20&lt;div&gt;1GE&lt;/div&gt;" style="edgeLabel;html=1;align=center;verticalAlign=middle;resizable=0;points=[];" parent="KspUmnWx6zECCQGHvDuM-84" vertex="1" connectable="0">
          <mxGeometry x="-0.2124" relative="1" as="geometry">
            <mxPoint x="32" y="21" as="offset" />
          </mxGeometry>
        </mxCell>
        <mxCell id="KspUmnWx6zECCQGHvDuM-86" value="" style="endArrow=none;dashed=1;html=1;rounded=0;entryX=1;entryY=0.5;entryDx=0;entryDy=0;exitX=0;exitY=0.5;exitDx=0;exitDy=0;" parent="1" source="KspUmnWx6zECCQGHvDuM-50" target="KspUmnWx6zECCQGHvDuM-46" edge="1">
          <mxGeometry width="50" height="50" relative="1" as="geometry">
            <mxPoint x="420" y="140" as="sourcePoint" />
            <mxPoint x="470" y="90" as="targetPoint" />
          </mxGeometry>
        </mxCell>
        <mxCell id="KspUmnWx6zECCQGHvDuM-87" value="23&lt;div&gt;10GE&lt;/div&gt;" style="edgeLabel;html=1;align=center;verticalAlign=middle;resizable=0;points=[];" parent="KspUmnWx6zECCQGHvDuM-86" vertex="1" connectable="0">
          <mxGeometry x="0.0054" y="1" relative="1" as="geometry">
            <mxPoint as="offset" />
          </mxGeometry>
        </mxCell>
        <mxCell id="KspUmnWx6zECCQGHvDuM-88" value="" style="endArrow=none;dashed=1;html=1;rounded=0;exitX=0.5;exitY=0;exitDx=0;exitDy=0;entryX=0.5;entryY=1;entryDx=0;entryDy=0;" parent="1" source="KspUmnWx6zECCQGHvDuM-37" target="KspUmnWx6zECCQGHvDuM-49" edge="1">
          <mxGeometry width="50" height="50" relative="1" as="geometry">
            <mxPoint x="350" y="140" as="sourcePoint" />
            <mxPoint x="400" y="90" as="targetPoint" />
          </mxGeometry>
        </mxCell>
        <mxCell id="KspUmnWx6zECCQGHvDuM-89" value="21&lt;div&gt;10GE&lt;/div&gt;" style="edgeLabel;html=1;align=center;verticalAlign=middle;resizable=0;points=[];" parent="KspUmnWx6zECCQGHvDuM-88" vertex="1" connectable="0">
          <mxGeometry x="0.1429" relative="1" as="geometry">
            <mxPoint y="11" as="offset" />
          </mxGeometry>
        </mxCell>
        <mxCell id="KspUmnWx6zECCQGHvDuM-90" value="" style="endArrow=none;html=1;rounded=0;entryX=0.5;entryY=1;entryDx=0;entryDy=0;exitX=0.5;exitY=0;exitDx=0;exitDy=0;" parent="1" source="KspUmnWx6zECCQGHvDuM-35" target="KspUmnWx6zECCQGHvDuM-56" edge="1">
          <mxGeometry width="50" height="50" relative="1" as="geometry">
            <mxPoint x="420" y="140" as="sourcePoint" />
            <mxPoint x="470" y="90" as="targetPoint" />
          </mxGeometry>
        </mxCell>
        <mxCell id="KspUmnWx6zECCQGHvDuM-91" value="22&lt;div&gt;1GE&lt;/div&gt;" style="edgeLabel;html=1;align=center;verticalAlign=middle;resizable=0;points=[];" parent="KspUmnWx6zECCQGHvDuM-90" vertex="1" connectable="0">
          <mxGeometry x="-0.127" relative="1" as="geometry">
            <mxPoint as="offset" />
          </mxGeometry>
        </mxCell>
        <mxCell id="OyfmugTqQawgg3ioOz2T-53" value="&lt;font style=&quot;font-size: 14px;&quot; color=&quot;#ff0000&quot;&gt;R - корневые порты&lt;/font&gt;" style="text;html=1;align=center;verticalAlign=middle;resizable=0;points=[];autosize=1;strokeColor=none;fillColor=none;strokeWidth=3;" parent="1" vertex="1">
          <mxGeometry x="440" y="1220" width="150" height="30" as="geometry" />
        </mxCell>
        <mxCell id="OyfmugTqQawgg3ioOz2T-54" value="&lt;font style=&quot;font-size: 14px;&quot; color=&quot;#0000ff&quot;&gt;D - назначенные порты&lt;/font&gt;" style="text;html=1;align=center;verticalAlign=middle;resizable=0;points=[];autosize=1;strokeColor=none;fillColor=none;strokeWidth=3;" parent="1" vertex="1">
          <mxGeometry x="440" y="1240" width="170" height="30" as="geometry" />
        </mxCell>
        <mxCell id="OyfmugTqQawgg3ioOz2T-55" value="&lt;font style=&quot;font-size: 14px;&quot;&gt;X - заблокированные порты&lt;/font&gt;" style="text;html=1;align=center;verticalAlign=middle;resizable=0;points=[];autosize=1;strokeColor=none;fillColor=none;strokeWidth=3;" parent="1" vertex="1">
          <mxGeometry x="440" y="1260" width="200" height="30" as="geometry" />
        </mxCell>
        <mxCell id="OyfmugTqQawgg3ioOz2T-169" value="Sw5&lt;br&gt;RPC=0&lt;br&gt;&lt;font color=&quot;#ff0000&quot;&gt;ROOT&lt;/font&gt;" style="whiteSpace=wrap;html=1;aspect=fixed;" parent="1" vertex="1">
          <mxGeometry x="880" y="270" width="150" height="150" as="geometry" />
        </mxCell>
        <mxCell id="OyfmugTqQawgg3ioOz2T-170" value="Sw3" style="whiteSpace=wrap;html=1;aspect=fixed;" parent="1" vertex="1">
          <mxGeometry x="880" y="540" width="150" height="150" as="geometry" />
        </mxCell>
        <mxCell id="OyfmugTqQawgg3ioOz2T-171" value="Sw6&lt;br&gt;RPC=" style="whiteSpace=wrap;html=1;aspect=fixed;" parent="1" vertex="1">
          <mxGeometry x="1230.51" y="270" width="150" height="150" as="geometry" />
        </mxCell>
        <mxCell id="OyfmugTqQawgg3ioOz2T-172" value="Sw7&lt;br&gt;RPC" style="whiteSpace=wrap;html=1;aspect=fixed;" parent="1" vertex="1">
          <mxGeometry x="880" y="30" width="150" height="150" as="geometry" />
        </mxCell>
        <mxCell id="OyfmugTqQawgg3ioOz2T-173" value="Sw8" style="whiteSpace=wrap;html=1;aspect=fixed;" parent="1" vertex="1">
          <mxGeometry x="1230.51" y="30" width="150" height="150" as="geometry" />
        </mxCell>
        <mxCell id="OyfmugTqQawgg3ioOz2T-174" value="Sw4" style="whiteSpace=wrap;html=1;aspect=fixed;" parent="1" vertex="1">
          <mxGeometry x="1230.51" y="540" width="150" height="150" as="geometry" />
        </mxCell>
        <mxCell id="OyfmugTqQawgg3ioOz2T-175" value="1" style="whiteSpace=wrap;html=1;aspect=fixed;" parent="1" vertex="1">
          <mxGeometry x="900" y="540" width="30" height="30" as="geometry" />
        </mxCell>
        <mxCell id="OyfmugTqQawgg3ioOz2T-176" value="2" style="whiteSpace=wrap;html=1;aspect=fixed;" parent="1" vertex="1">
          <mxGeometry x="940" y="540" width="30" height="30" as="geometry" />
        </mxCell>
        <mxCell id="OyfmugTqQawgg3ioOz2T-177" value="3" style="whiteSpace=wrap;html=1;aspect=fixed;" parent="1" vertex="1">
          <mxGeometry x="980" y="540" width="30" height="30" as="geometry" />
        </mxCell>
        <mxCell id="OyfmugTqQawgg3ioOz2T-178" value="4" style="whiteSpace=wrap;html=1;aspect=fixed;" parent="1" vertex="1">
          <mxGeometry x="1000" y="580" width="30" height="30" as="geometry" />
        </mxCell>
        <mxCell id="OyfmugTqQawgg3ioOz2T-179" value="5" style="whiteSpace=wrap;html=1;aspect=fixed;" parent="1" vertex="1">
          <mxGeometry x="1000" y="620" width="30" height="30" as="geometry" />
        </mxCell>
        <mxCell id="OyfmugTqQawgg3ioOz2T-180" value="7" style="whiteSpace=wrap;html=1;aspect=fixed;" parent="1" vertex="1">
          <mxGeometry x="1230.51" y="620" width="30" height="30" as="geometry" />
        </mxCell>
        <mxCell id="OyfmugTqQawgg3ioOz2T-181" value="8" style="whiteSpace=wrap;html=1;aspect=fixed;" parent="1" vertex="1">
          <mxGeometry x="1230.51" y="580" width="30" height="30" as="geometry" />
        </mxCell>
        <mxCell id="OyfmugTqQawgg3ioOz2T-182" value="1" style="whiteSpace=wrap;html=1;aspect=fixed;" parent="1" vertex="1">
          <mxGeometry x="1250.51" y="540" width="30" height="30" as="geometry" />
        </mxCell>
        <mxCell id="OyfmugTqQawgg3ioOz2T-183" value="2&lt;span style=&quot;color: rgba(0, 0, 0, 0); font-family: monospace; font-size: 0px; text-align: start; text-wrap: nowrap;&quot;&gt;%3CmxGraphModel%3E%3Croot%3E%3CmxCell%20id%3D%220%22%2F%3E%3CmxCell%20id%3D%221%22%20parent%3D%220%22%2F%3E%3CmxCell%20id%3D%222%22%20value%3D%221%22%20style%3D%22whiteSpace%3Dwrap%3Bhtml%3D1%3Baspect%3Dfixed%3B%22%20vertex%3D%221%22%20parent%3D%221%22%3E%3CmxGeometry%20x%3D%22610%22%20y%3D%22520%22%20width%3D%2230%22%20height%3D%2230%22%20as%3D%22geometry%22%2F%3E%3C%2FmxCell%3E%3C%2Froot%3E%3C%2FmxGraphModel%3E&lt;/span&gt;&lt;span style=&quot;color: rgba(0, 0, 0, 0); font-family: monospace; font-size: 0px; text-align: start; text-wrap: nowrap;&quot;&gt;%3CmxGraphModel%3E%3Croot%3E%3CmxCell%20id%3D%220%22%2F%3E%3CmxCell%20id%3D%221%22%20parent%3D%220%22%2F%3E%3CmxCell%20id%3D%222%22%20value%3D%221%22%20style%3D%22whiteSpace%3Dwrap%3Bhtml%3D1%3Baspect%3Dfixed%3B%22%20vertex%3D%221%22%20parent%3D%221%22%3E%3CmxGeometry%20x%3D%22610%22%20y%3D%22520%22%20width%3D%2230%22%20height%3D%2230%22%20as%3D%22geometry%22%2F%3E%3C%2FmxCell%3E%3C%2Froot%3E%3C%2FmxGraphModel%3E&lt;/span&gt;" style="whiteSpace=wrap;html=1;aspect=fixed;" parent="1" vertex="1">
          <mxGeometry x="1290.51" y="540" width="30" height="30" as="geometry" />
        </mxCell>
        <mxCell id="OyfmugTqQawgg3ioOz2T-184" value="3" style="whiteSpace=wrap;html=1;aspect=fixed;" parent="1" vertex="1">
          <mxGeometry x="1330.51" y="540" width="30" height="30" as="geometry" />
        </mxCell>
        <mxCell id="OyfmugTqQawgg3ioOz2T-185" value="6" style="whiteSpace=wrap;html=1;aspect=fixed;" parent="1" vertex="1">
          <mxGeometry x="1250.51" y="390" width="30" height="30" as="geometry" />
        </mxCell>
        <mxCell id="OyfmugTqQawgg3ioOz2T-186" value="5" style="whiteSpace=wrap;html=1;aspect=fixed;" parent="1" vertex="1">
          <mxGeometry x="1290.51" y="390" width="30" height="30" as="geometry" />
        </mxCell>
        <mxCell id="OyfmugTqQawgg3ioOz2T-187" value="4" style="whiteSpace=wrap;html=1;aspect=fixed;" parent="1" vertex="1">
          <mxGeometry x="1330.51" y="390" width="30" height="30" as="geometry" />
        </mxCell>
        <mxCell id="OyfmugTqQawgg3ioOz2T-188" value="7" style="whiteSpace=wrap;html=1;aspect=fixed;" parent="1" vertex="1">
          <mxGeometry x="1230.51" y="350" width="30" height="30" as="geometry" />
        </mxCell>
        <mxCell id="OyfmugTqQawgg3ioOz2T-189" value="8" style="whiteSpace=wrap;html=1;aspect=fixed;" parent="1" vertex="1">
          <mxGeometry x="1230.51" y="310" width="30" height="30" as="geometry" />
        </mxCell>
        <mxCell id="OyfmugTqQawgg3ioOz2T-190" value="1" style="whiteSpace=wrap;html=1;aspect=fixed;" parent="1" vertex="1">
          <mxGeometry x="1250.51" y="270" width="30" height="30" as="geometry" />
        </mxCell>
        <mxCell id="OyfmugTqQawgg3ioOz2T-191" value="2" style="whiteSpace=wrap;html=1;aspect=fixed;" parent="1" vertex="1">
          <mxGeometry x="1290.51" y="270" width="30" height="30" as="geometry" />
        </mxCell>
        <mxCell id="OyfmugTqQawgg3ioOz2T-192" value="3" style="whiteSpace=wrap;html=1;aspect=fixed;" parent="1" vertex="1">
          <mxGeometry x="1330.51" y="270" width="30" height="30" as="geometry" />
        </mxCell>
        <mxCell id="OyfmugTqQawgg3ioOz2T-193" value="1" style="whiteSpace=wrap;html=1;aspect=fixed;" parent="1" vertex="1">
          <mxGeometry x="900" y="270" width="30" height="30" as="geometry" />
        </mxCell>
        <mxCell id="OyfmugTqQawgg3ioOz2T-194" value="2" style="whiteSpace=wrap;html=1;aspect=fixed;" parent="1" vertex="1">
          <mxGeometry x="940" y="270" width="30" height="30" as="geometry" />
        </mxCell>
        <mxCell id="OyfmugTqQawgg3ioOz2T-195" value="3" style="whiteSpace=wrap;html=1;aspect=fixed;" parent="1" vertex="1">
          <mxGeometry x="980" y="270" width="30" height="30" as="geometry" />
        </mxCell>
        <mxCell id="OyfmugTqQawgg3ioOz2T-196" value="4" style="whiteSpace=wrap;html=1;aspect=fixed;" parent="1" vertex="1">
          <mxGeometry x="1000" y="310" width="30" height="30" as="geometry" />
        </mxCell>
        <mxCell id="OyfmugTqQawgg3ioOz2T-197" value="5" style="whiteSpace=wrap;html=1;aspect=fixed;" parent="1" vertex="1">
          <mxGeometry x="1000" y="350" width="30" height="30" as="geometry" />
        </mxCell>
        <mxCell id="OyfmugTqQawgg3ioOz2T-198" value="8" style="whiteSpace=wrap;html=1;aspect=fixed;" parent="1" vertex="1">
          <mxGeometry x="900" y="390" width="30" height="30" as="geometry" />
        </mxCell>
        <mxCell id="OyfmugTqQawgg3ioOz2T-199" value="7" style="whiteSpace=wrap;html=1;aspect=fixed;" parent="1" vertex="1">
          <mxGeometry x="940" y="390" width="30" height="30" as="geometry" />
        </mxCell>
        <mxCell id="OyfmugTqQawgg3ioOz2T-200" value="6" style="whiteSpace=wrap;html=1;aspect=fixed;" parent="1" vertex="1">
          <mxGeometry x="980" y="390" width="30" height="30" as="geometry" />
        </mxCell>
        <mxCell id="OyfmugTqQawgg3ioOz2T-201" value="2" style="whiteSpace=wrap;html=1;aspect=fixed;" parent="1" vertex="1">
          <mxGeometry x="1000" y="60" width="30" height="30" as="geometry" />
        </mxCell>
        <mxCell id="OyfmugTqQawgg3ioOz2T-202" value="3" style="whiteSpace=wrap;html=1;aspect=fixed;" parent="1" vertex="1">
          <mxGeometry x="1000" y="100" width="30" height="30" as="geometry" />
        </mxCell>
        <mxCell id="OyfmugTqQawgg3ioOz2T-203" value="4" style="whiteSpace=wrap;html=1;aspect=fixed;" parent="1" vertex="1">
          <mxGeometry x="1000" y="140" width="30" height="30" as="geometry" />
        </mxCell>
        <mxCell id="OyfmugTqQawgg3ioOz2T-204" value="5" style="whiteSpace=wrap;html=1;aspect=fixed;" parent="1" vertex="1">
          <mxGeometry x="900" y="150" width="30" height="30" as="geometry" />
        </mxCell>
        <mxCell id="OyfmugTqQawgg3ioOz2T-205" value="1" style="whiteSpace=wrap;html=1;aspect=fixed;" parent="1" vertex="1">
          <mxGeometry x="1230.51" y="60" width="30" height="30" as="geometry" />
        </mxCell>
        <mxCell id="OyfmugTqQawgg3ioOz2T-206" value="5" style="whiteSpace=wrap;html=1;aspect=fixed;" parent="1" vertex="1">
          <mxGeometry x="1230.51" y="100" width="30" height="30" as="geometry" />
        </mxCell>
        <mxCell id="OyfmugTqQawgg3ioOz2T-207" value="4" style="whiteSpace=wrap;html=1;aspect=fixed;" parent="1" vertex="1">
          <mxGeometry x="1230.51" y="140" width="30" height="30" as="geometry" />
        </mxCell>
        <mxCell id="OyfmugTqQawgg3ioOz2T-208" value="3" style="whiteSpace=wrap;html=1;aspect=fixed;" parent="1" vertex="1">
          <mxGeometry x="1330.51" y="150" width="30" height="30" as="geometry" />
        </mxCell>
        <mxCell id="OyfmugTqQawgg3ioOz2T-209" value="" style="endArrow=none;dashed=1;html=1;rounded=0;entryX=0;entryY=0.5;entryDx=0;entryDy=0;exitX=1;exitY=0.5;exitDx=0;exitDy=0;" parent="1" target="OyfmugTqQawgg3ioOz2T-180" edge="1">
          <mxGeometry width="50" height="50" relative="1" as="geometry">
            <mxPoint x="1031" y="635" as="sourcePoint" />
            <mxPoint x="1191" y="635" as="targetPoint" />
          </mxGeometry>
        </mxCell>
        <mxCell id="OyfmugTqQawgg3ioOz2T-210" value="7&lt;div&gt;10GE&lt;/div&gt;" style="edgeLabel;html=1;align=center;verticalAlign=middle;resizable=0;points=[];" parent="OyfmugTqQawgg3ioOz2T-209" vertex="1" connectable="0">
          <mxGeometry x="-0.1018" y="-1" relative="1" as="geometry">
            <mxPoint x="8" y="-1" as="offset" />
          </mxGeometry>
        </mxCell>
        <mxCell id="OyfmugTqQawgg3ioOz2T-211" value="" style="endArrow=none;html=1;rounded=0;exitX=1;exitY=0.5;exitDx=0;exitDy=0;entryX=0;entryY=0.5;entryDx=0;entryDy=0;" parent="1" target="OyfmugTqQawgg3ioOz2T-181" edge="1">
          <mxGeometry width="50" height="50" relative="1" as="geometry">
            <mxPoint x="1031" y="595" as="sourcePoint" />
            <mxPoint x="1190" y="590" as="targetPoint" />
          </mxGeometry>
        </mxCell>
        <mxCell id="OyfmugTqQawgg3ioOz2T-212" value="8&lt;div&gt;1GE&lt;/div&gt;" style="edgeLabel;html=1;align=center;verticalAlign=middle;resizable=0;points=[];" parent="OyfmugTqQawgg3ioOz2T-211" vertex="1" connectable="0">
          <mxGeometry x="-0.0125" y="-1" relative="1" as="geometry">
            <mxPoint y="-1" as="offset" />
          </mxGeometry>
        </mxCell>
        <mxCell id="OyfmugTqQawgg3ioOz2T-213" value="" style="endArrow=none;dashed=1;html=1;rounded=0;entryX=0.5;entryY=1;entryDx=0;entryDy=0;exitX=0.5;exitY=0;exitDx=0;exitDy=0;" parent="1" source="OyfmugTqQawgg3ioOz2T-177" target="OyfmugTqQawgg3ioOz2T-185" edge="1">
          <mxGeometry width="50" height="50" relative="1" as="geometry">
            <mxPoint x="1170" y="470" as="sourcePoint" />
            <mxPoint x="1220" y="420" as="targetPoint" />
          </mxGeometry>
        </mxCell>
        <mxCell id="OyfmugTqQawgg3ioOz2T-214" value="9&lt;div&gt;10GE&lt;/div&gt;" style="edgeLabel;html=1;align=center;verticalAlign=middle;resizable=0;points=[];" parent="OyfmugTqQawgg3ioOz2T-213" vertex="1" connectable="0">
          <mxGeometry x="0.0247" y="1" relative="1" as="geometry">
            <mxPoint x="-62" y="32" as="offset" />
          </mxGeometry>
        </mxCell>
        <mxCell id="OyfmugTqQawgg3ioOz2T-215" value="" style="endArrow=none;html=1;rounded=0;entryX=0.5;entryY=1;entryDx=0;entryDy=0;exitX=0.5;exitY=0;exitDx=0;exitDy=0;" parent="1" source="OyfmugTqQawgg3ioOz2T-182" target="OyfmugTqQawgg3ioOz2T-200" edge="1">
          <mxGeometry width="50" height="50" relative="1" as="geometry">
            <mxPoint x="1000" y="530" as="sourcePoint" />
            <mxPoint x="1050" y="480" as="targetPoint" />
          </mxGeometry>
        </mxCell>
        <mxCell id="OyfmugTqQawgg3ioOz2T-216" value="10&lt;br&gt;1GE" style="edgeLabel;html=1;align=center;verticalAlign=middle;resizable=0;points=[];" parent="OyfmugTqQawgg3ioOz2T-215" vertex="1" connectable="0">
          <mxGeometry x="-0.3351" y="1" relative="1" as="geometry">
            <mxPoint x="16" y="9" as="offset" />
          </mxGeometry>
        </mxCell>
        <mxCell id="OyfmugTqQawgg3ioOz2T-217" value="" style="endArrow=none;dashed=1;html=1;rounded=0;exitX=0.5;exitY=0;exitDx=0;exitDy=0;entryX=0.5;entryY=1;entryDx=0;entryDy=0;" parent="1" source="OyfmugTqQawgg3ioOz2T-175" target="OyfmugTqQawgg3ioOz2T-198" edge="1">
          <mxGeometry width="50" height="50" relative="1" as="geometry">
            <mxPoint x="1010" y="530" as="sourcePoint" />
            <mxPoint x="1060" y="480" as="targetPoint" />
          </mxGeometry>
        </mxCell>
        <mxCell id="OyfmugTqQawgg3ioOz2T-218" value="11&lt;div&gt;10GE&lt;/div&gt;" style="edgeLabel;html=1;align=center;verticalAlign=middle;resizable=0;points=[];" parent="OyfmugTqQawgg3ioOz2T-217" vertex="1" connectable="0">
          <mxGeometry x="-0.15" y="1" relative="1" as="geometry">
            <mxPoint as="offset" />
          </mxGeometry>
        </mxCell>
        <mxCell id="OyfmugTqQawgg3ioOz2T-219" value="" style="endArrow=none;html=1;rounded=0;entryX=0.5;entryY=1;entryDx=0;entryDy=0;exitX=0.5;exitY=0;exitDx=0;exitDy=0;" parent="1" source="OyfmugTqQawgg3ioOz2T-183" target="OyfmugTqQawgg3ioOz2T-186" edge="1">
          <mxGeometry width="50" height="50" relative="1" as="geometry">
            <mxPoint x="1240.51" y="510" as="sourcePoint" />
            <mxPoint x="1290.51" y="460" as="targetPoint" />
          </mxGeometry>
        </mxCell>
        <mxCell id="OyfmugTqQawgg3ioOz2T-220" value="12&amp;nbsp;&lt;div&gt;1GE&lt;/div&gt;" style="edgeLabel;html=1;align=center;verticalAlign=middle;resizable=0;points=[];" parent="OyfmugTqQawgg3ioOz2T-219" vertex="1" connectable="0">
          <mxGeometry x="-0.0905" y="1" relative="1" as="geometry">
            <mxPoint as="offset" />
          </mxGeometry>
        </mxCell>
        <mxCell id="OyfmugTqQawgg3ioOz2T-221" value="" style="endArrow=none;dashed=1;html=1;rounded=0;entryX=0.5;entryY=1;entryDx=0;entryDy=0;exitX=0.5;exitY=0;exitDx=0;exitDy=0;" parent="1" source="OyfmugTqQawgg3ioOz2T-176" target="OyfmugTqQawgg3ioOz2T-199" edge="1">
          <mxGeometry width="50" height="50" relative="1" as="geometry">
            <mxPoint x="1010" y="530" as="sourcePoint" />
            <mxPoint x="1060" y="480" as="targetPoint" />
          </mxGeometry>
        </mxCell>
        <mxCell id="OyfmugTqQawgg3ioOz2T-222" value="13&lt;div&gt;10GE&lt;/div&gt;" style="edgeLabel;html=1;align=center;verticalAlign=middle;resizable=0;points=[];" parent="OyfmugTqQawgg3ioOz2T-221" vertex="1" connectable="0">
          <mxGeometry x="-0.2214" relative="1" as="geometry">
            <mxPoint y="-4" as="offset" />
          </mxGeometry>
        </mxCell>
        <mxCell id="OyfmugTqQawgg3ioOz2T-223" value="" style="endArrow=none;html=1;rounded=0;entryX=0.5;entryY=1;entryDx=0;entryDy=0;" parent="1" source="OyfmugTqQawgg3ioOz2T-184" target="OyfmugTqQawgg3ioOz2T-187" edge="1">
          <mxGeometry width="50" height="50" relative="1" as="geometry">
            <mxPoint x="1050.51" y="530" as="sourcePoint" />
            <mxPoint x="1100.51" y="480" as="targetPoint" />
          </mxGeometry>
        </mxCell>
        <mxCell id="OyfmugTqQawgg3ioOz2T-224" value="14&lt;div&gt;1GE&lt;/div&gt;" style="edgeLabel;html=1;align=center;verticalAlign=middle;resizable=0;points=[];" parent="OyfmugTqQawgg3ioOz2T-223" vertex="1" connectable="0">
          <mxGeometry x="-0.0905" relative="1" as="geometry">
            <mxPoint as="offset" />
          </mxGeometry>
        </mxCell>
        <mxCell id="OyfmugTqQawgg3ioOz2T-225" value="" style="endArrow=none;dashed=1;html=1;rounded=0;entryX=1;entryY=0.5;entryDx=0;entryDy=0;exitX=0;exitY=0.5;exitDx=0;exitDy=0;" parent="1" source="OyfmugTqQawgg3ioOz2T-188" target="OyfmugTqQawgg3ioOz2T-197" edge="1">
          <mxGeometry width="50" height="50" relative="1" as="geometry">
            <mxPoint x="1010" y="430" as="sourcePoint" />
            <mxPoint x="1060" y="380" as="targetPoint" />
          </mxGeometry>
        </mxCell>
        <mxCell id="OyfmugTqQawgg3ioOz2T-226" value="15&amp;nbsp;&lt;div&gt;10GE&lt;/div&gt;" style="edgeLabel;html=1;align=center;verticalAlign=middle;resizable=0;points=[];" parent="OyfmugTqQawgg3ioOz2T-225" vertex="1" connectable="0">
          <mxGeometry x="0.0054" y="2" relative="1" as="geometry">
            <mxPoint as="offset" />
          </mxGeometry>
        </mxCell>
        <mxCell id="OyfmugTqQawgg3ioOz2T-227" value="" style="endArrow=none;html=1;rounded=0;entryX=1;entryY=0.5;entryDx=0;entryDy=0;exitX=0;exitY=0.5;exitDx=0;exitDy=0;" parent="1" source="OyfmugTqQawgg3ioOz2T-189" target="OyfmugTqQawgg3ioOz2T-196" edge="1">
          <mxGeometry width="50" height="50" relative="1" as="geometry">
            <mxPoint x="1190" y="325" as="sourcePoint" />
            <mxPoint x="1033" y="325" as="targetPoint" />
          </mxGeometry>
        </mxCell>
        <mxCell id="OyfmugTqQawgg3ioOz2T-228" value="16&lt;div&gt;1GE&lt;/div&gt;" style="edgeLabel;html=1;align=center;verticalAlign=middle;resizable=0;points=[];" parent="OyfmugTqQawgg3ioOz2T-227" vertex="1" connectable="0">
          <mxGeometry x="-0.0214" y="3" relative="1" as="geometry">
            <mxPoint y="-3" as="offset" />
          </mxGeometry>
        </mxCell>
        <mxCell id="OyfmugTqQawgg3ioOz2T-229" value="" style="endArrow=none;dashed=1;html=1;rounded=0;exitX=0.5;exitY=0;exitDx=0;exitDy=0;entryX=0;entryY=0.5;entryDx=0;entryDy=0;" parent="1" source="OyfmugTqQawgg3ioOz2T-195" target="OyfmugTqQawgg3ioOz2T-207" edge="1">
          <mxGeometry width="50" height="50" relative="1" as="geometry">
            <mxPoint x="1010" y="260" as="sourcePoint" />
            <mxPoint x="1060" y="210" as="targetPoint" />
          </mxGeometry>
        </mxCell>
        <mxCell id="OyfmugTqQawgg3ioOz2T-230" value="17&lt;div&gt;10GE&lt;/div&gt;" style="edgeLabel;html=1;align=center;verticalAlign=middle;resizable=0;points=[];" parent="OyfmugTqQawgg3ioOz2T-229" vertex="1" connectable="0">
          <mxGeometry x="-0.0073" y="-1" relative="1" as="geometry">
            <mxPoint x="-22" y="16" as="offset" />
          </mxGeometry>
        </mxCell>
        <mxCell id="OyfmugTqQawgg3ioOz2T-231" value="19&lt;div&gt;10GE&lt;/div&gt;" style="endArrow=none;dashed=1;html=1;rounded=0;exitX=0.5;exitY=0;exitDx=0;exitDy=0;entryX=0;entryY=0.5;entryDx=0;entryDy=0;" parent="1" source="OyfmugTqQawgg3ioOz2T-194" target="OyfmugTqQawgg3ioOz2T-206" edge="1">
          <mxGeometry x="-0.3596" width="50" height="50" relative="1" as="geometry">
            <mxPoint x="980" y="245" as="sourcePoint" />
            <mxPoint x="1180" y="120" as="targetPoint" />
            <mxPoint as="offset" />
          </mxGeometry>
        </mxCell>
        <mxCell id="OyfmugTqQawgg3ioOz2T-232" value="" style="endArrow=none;html=1;rounded=0;entryX=1;entryY=0.5;entryDx=0;entryDy=0;exitX=0.5;exitY=0;exitDx=0;exitDy=0;" parent="1" source="OyfmugTqQawgg3ioOz2T-190" target="OyfmugTqQawgg3ioOz2T-203" edge="1">
          <mxGeometry width="50" height="50" relative="1" as="geometry">
            <mxPoint x="1010" y="260" as="sourcePoint" />
            <mxPoint x="1060" y="210" as="targetPoint" />
          </mxGeometry>
        </mxCell>
        <mxCell id="OyfmugTqQawgg3ioOz2T-233" value="18&lt;div&gt;1GE&lt;/div&gt;" style="edgeLabel;html=1;align=center;verticalAlign=middle;resizable=0;points=[];" parent="OyfmugTqQawgg3ioOz2T-232" vertex="1" connectable="0">
          <mxGeometry x="-0.2087" y="-1" relative="1" as="geometry">
            <mxPoint x="11" y="6" as="offset" />
          </mxGeometry>
        </mxCell>
        <mxCell id="OyfmugTqQawgg3ioOz2T-234" value="" style="endArrow=none;html=1;rounded=0;entryX=1;entryY=0.5;entryDx=0;entryDy=0;exitX=0.5;exitY=0;exitDx=0;exitDy=0;" parent="1" source="OyfmugTqQawgg3ioOz2T-191" target="OyfmugTqQawgg3ioOz2T-202" edge="1">
          <mxGeometry width="50" height="50" relative="1" as="geometry">
            <mxPoint x="1010" y="260" as="sourcePoint" />
            <mxPoint x="1060" y="210" as="targetPoint" />
          </mxGeometry>
        </mxCell>
        <mxCell id="OyfmugTqQawgg3ioOz2T-235" value="20&lt;div&gt;1GE&lt;/div&gt;" style="edgeLabel;html=1;align=center;verticalAlign=middle;resizable=0;points=[];" parent="OyfmugTqQawgg3ioOz2T-234" vertex="1" connectable="0">
          <mxGeometry x="-0.2124" relative="1" as="geometry">
            <mxPoint x="32" y="21" as="offset" />
          </mxGeometry>
        </mxCell>
        <mxCell id="OyfmugTqQawgg3ioOz2T-236" value="" style="endArrow=none;dashed=1;html=1;rounded=0;entryX=1;entryY=0.5;entryDx=0;entryDy=0;exitX=0;exitY=0.5;exitDx=0;exitDy=0;" parent="1" source="OyfmugTqQawgg3ioOz2T-205" target="OyfmugTqQawgg3ioOz2T-201" edge="1">
          <mxGeometry width="50" height="50" relative="1" as="geometry">
            <mxPoint x="1010" y="160" as="sourcePoint" />
            <mxPoint x="1060" y="110" as="targetPoint" />
          </mxGeometry>
        </mxCell>
        <mxCell id="OyfmugTqQawgg3ioOz2T-237" value="23&lt;div&gt;10GE&lt;/div&gt;" style="edgeLabel;html=1;align=center;verticalAlign=middle;resizable=0;points=[];" parent="OyfmugTqQawgg3ioOz2T-236" vertex="1" connectable="0">
          <mxGeometry x="0.0054" y="1" relative="1" as="geometry">
            <mxPoint as="offset" />
          </mxGeometry>
        </mxCell>
        <mxCell id="OyfmugTqQawgg3ioOz2T-238" value="" style="endArrow=none;dashed=1;html=1;rounded=0;exitX=0.5;exitY=0;exitDx=0;exitDy=0;entryX=0.5;entryY=1;entryDx=0;entryDy=0;" parent="1" source="OyfmugTqQawgg3ioOz2T-193" target="OyfmugTqQawgg3ioOz2T-204" edge="1">
          <mxGeometry width="50" height="50" relative="1" as="geometry">
            <mxPoint x="1010" y="160" as="sourcePoint" />
            <mxPoint x="1060" y="110" as="targetPoint" />
          </mxGeometry>
        </mxCell>
        <mxCell id="OyfmugTqQawgg3ioOz2T-239" value="21&lt;div&gt;10GE&lt;/div&gt;" style="edgeLabel;html=1;align=center;verticalAlign=middle;resizable=0;points=[];" parent="OyfmugTqQawgg3ioOz2T-238" vertex="1" connectable="0">
          <mxGeometry x="0.1429" relative="1" as="geometry">
            <mxPoint y="11" as="offset" />
          </mxGeometry>
        </mxCell>
        <mxCell id="OyfmugTqQawgg3ioOz2T-240" value="" style="endArrow=none;html=1;rounded=0;entryX=0.5;entryY=1;entryDx=0;entryDy=0;exitX=0.5;exitY=0;exitDx=0;exitDy=0;" parent="1" source="OyfmugTqQawgg3ioOz2T-192" target="OyfmugTqQawgg3ioOz2T-208" edge="1">
          <mxGeometry width="50" height="50" relative="1" as="geometry">
            <mxPoint x="1050.51" y="160" as="sourcePoint" />
            <mxPoint x="1100.51" y="110" as="targetPoint" />
          </mxGeometry>
        </mxCell>
        <mxCell id="OyfmugTqQawgg3ioOz2T-241" value="22&lt;div&gt;1GE&lt;/div&gt;" style="edgeLabel;html=1;align=center;verticalAlign=middle;resizable=0;points=[];" parent="OyfmugTqQawgg3ioOz2T-240" vertex="1" connectable="0">
          <mxGeometry x="-0.127" relative="1" as="geometry">
            <mxPoint as="offset" />
          </mxGeometry>
        </mxCell>
        <mxCell id="VlXXKCNlBHuYCvkseMXM-11" value="Sw2" style="whiteSpace=wrap;html=1;aspect=fixed;" parent="1" vertex="1">
          <mxGeometry x="1060" y="714.6" width="150" height="150" as="geometry" />
        </mxCell>
        <mxCell id="VlXXKCNlBHuYCvkseMXM-12" value="1" style="whiteSpace=wrap;html=1;aspect=fixed;" parent="1" vertex="1">
          <mxGeometry x="1060" y="714.6" width="30" height="30" as="geometry" />
        </mxCell>
        <mxCell id="VlXXKCNlBHuYCvkseMXM-13" value="2" style="whiteSpace=wrap;html=1;aspect=fixed;" parent="1" vertex="1">
          <mxGeometry x="1180" y="714.6" width="30" height="30" as="geometry" />
        </mxCell>
        <mxCell id="VlXXKCNlBHuYCvkseMXM-19" value="Sw1&lt;div&gt;&lt;br/&gt;&lt;/div&gt;" style="whiteSpace=wrap;html=1;aspect=fixed;" parent="1" vertex="1">
          <mxGeometry x="1060" y="920" width="150" height="150" as="geometry" />
        </mxCell>
        <mxCell id="VlXXKCNlBHuYCvkseMXM-20" value="1" style="whiteSpace=wrap;html=1;aspect=fixed;" parent="1" vertex="1">
          <mxGeometry x="1060" y="1010" width="30" height="30" as="geometry" />
        </mxCell>
        <mxCell id="VlXXKCNlBHuYCvkseMXM-21" value="2" style="whiteSpace=wrap;html=1;aspect=fixed;" parent="1" vertex="1">
          <mxGeometry x="1060" y="920" width="30" height="30" as="geometry" />
        </mxCell>
        <mxCell id="VlXXKCNlBHuYCvkseMXM-22" value="3" style="whiteSpace=wrap;html=1;aspect=fixed;" parent="1" vertex="1">
          <mxGeometry x="1180" y="920" width="30" height="30" as="geometry" />
        </mxCell>
        <mxCell id="VlXXKCNlBHuYCvkseMXM-23" value="4" style="whiteSpace=wrap;html=1;aspect=fixed;" parent="1" vertex="1">
          <mxGeometry x="1180" y="1010" width="30" height="30" as="geometry" />
        </mxCell>
        <mxCell id="VlXXKCNlBHuYCvkseMXM-27" value="4" style="whiteSpace=wrap;html=1;aspect=fixed;" parent="1" vertex="1">
          <mxGeometry x="1350.51" y="660" width="30" height="30" as="geometry" />
        </mxCell>
        <mxCell id="VlXXKCNlBHuYCvkseMXM-28" value="5" style="whiteSpace=wrap;html=1;aspect=fixed;" parent="1" vertex="1">
          <mxGeometry x="1300.51" y="660" width="30" height="30" as="geometry" />
        </mxCell>
        <mxCell id="VlXXKCNlBHuYCvkseMXM-29" value="8" style="whiteSpace=wrap;html=1;aspect=fixed;" parent="1" vertex="1">
          <mxGeometry x="880" y="660" width="30" height="30" as="geometry" />
        </mxCell>
        <mxCell id="VlXXKCNlBHuYCvkseMXM-30" value="7" style="whiteSpace=wrap;html=1;aspect=fixed;" parent="1" vertex="1">
          <mxGeometry x="930" y="660" width="30" height="30" as="geometry" />
        </mxCell>
        <mxCell id="VlXXKCNlBHuYCvkseMXM-31" value="6" style="whiteSpace=wrap;html=1;aspect=fixed;" parent="1" vertex="1">
          <mxGeometry x="1000" y="660" width="30" height="30" as="geometry" />
        </mxCell>
        <mxCell id="VlXXKCNlBHuYCvkseMXM-32" value="6" style="whiteSpace=wrap;html=1;aspect=fixed;" parent="1" vertex="1">
          <mxGeometry x="1230.51" y="660" width="30" height="30" as="geometry" />
        </mxCell>
        <mxCell id="VlXXKCNlBHuYCvkseMXM-33" value="" style="endArrow=none;dashed=1;html=1;rounded=0;entryX=0.5;entryY=1;entryDx=0;entryDy=0;exitX=0;exitY=0.5;exitDx=0;exitDy=0;" parent="1" source="VlXXKCNlBHuYCvkseMXM-20" target="VlXXKCNlBHuYCvkseMXM-29" edge="1">
          <mxGeometry width="50" height="50" relative="1" as="geometry">
            <mxPoint x="1041" y="645" as="sourcePoint" />
            <mxPoint x="1201" y="645" as="targetPoint" />
          </mxGeometry>
        </mxCell>
        <mxCell id="VlXXKCNlBHuYCvkseMXM-34" value="&lt;div&gt;3&lt;/div&gt;&lt;div&gt;10GE&lt;/div&gt;" style="edgeLabel;html=1;align=center;verticalAlign=middle;resizable=0;points=[];" parent="VlXXKCNlBHuYCvkseMXM-33" vertex="1" connectable="0">
          <mxGeometry x="-0.1018" y="-1" relative="1" as="geometry">
            <mxPoint x="-17" y="-24" as="offset" />
          </mxGeometry>
        </mxCell>
        <mxCell id="VlXXKCNlBHuYCvkseMXM-35" value="" style="endArrow=none;dashed=1;html=1;rounded=0;entryX=0.5;entryY=1;entryDx=0;entryDy=0;exitX=0;exitY=0;exitDx=0;exitDy=0;" parent="1" source="VlXXKCNlBHuYCvkseMXM-21" target="VlXXKCNlBHuYCvkseMXM-30" edge="1">
          <mxGeometry width="50" height="50" relative="1" as="geometry">
            <mxPoint x="1040" y="985" as="sourcePoint" />
            <mxPoint x="905" y="700" as="targetPoint" />
          </mxGeometry>
        </mxCell>
        <mxCell id="VlXXKCNlBHuYCvkseMXM-36" value="&lt;div&gt;1&lt;/div&gt;&lt;div&gt;10GE&lt;/div&gt;" style="edgeLabel;html=1;align=center;verticalAlign=middle;resizable=0;points=[];" parent="VlXXKCNlBHuYCvkseMXM-35" vertex="1" connectable="0">
          <mxGeometry x="-0.1018" y="-1" relative="1" as="geometry">
            <mxPoint x="1" y="3" as="offset" />
          </mxGeometry>
        </mxCell>
        <mxCell id="VlXXKCNlBHuYCvkseMXM-37" value="" style="endArrow=none;dashed=1;html=1;rounded=0;entryX=1;entryY=1;entryDx=0;entryDy=0;exitX=0;exitY=0;exitDx=0;exitDy=0;" parent="1" source="VlXXKCNlBHuYCvkseMXM-12" target="VlXXKCNlBHuYCvkseMXM-31" edge="1">
          <mxGeometry width="50" height="50" relative="1" as="geometry">
            <mxPoint x="1040" y="930" as="sourcePoint" />
            <mxPoint x="955" y="700" as="targetPoint" />
          </mxGeometry>
        </mxCell>
        <mxCell id="VlXXKCNlBHuYCvkseMXM-38" value="&lt;div&gt;5&lt;/div&gt;&lt;div&gt;10GE&lt;/div&gt;" style="edgeLabel;html=1;align=center;verticalAlign=middle;resizable=0;points=[];" parent="VlXXKCNlBHuYCvkseMXM-37" vertex="1" connectable="0">
          <mxGeometry x="-0.1018" y="-1" relative="1" as="geometry">
            <mxPoint x="8" y="-18" as="offset" />
          </mxGeometry>
        </mxCell>
        <mxCell id="VlXXKCNlBHuYCvkseMXM-41" value="" style="endArrow=none;html=1;rounded=0;entryX=1;entryY=0;entryDx=0;entryDy=0;exitX=0;exitY=1;exitDx=0;exitDy=0;" parent="1" source="VlXXKCNlBHuYCvkseMXM-32" target="VlXXKCNlBHuYCvkseMXM-13" edge="1">
          <mxGeometry width="50" height="50" relative="1" as="geometry">
            <mxPoint x="1276" y="550" as="sourcePoint" />
            <mxPoint x="1005" y="430" as="targetPoint" />
          </mxGeometry>
        </mxCell>
        <mxCell id="VlXXKCNlBHuYCvkseMXM-42" value="6&lt;br&gt;1GE" style="edgeLabel;html=1;align=center;verticalAlign=middle;resizable=0;points=[];" parent="VlXXKCNlBHuYCvkseMXM-41" vertex="1" connectable="0">
          <mxGeometry x="-0.3351" y="1" relative="1" as="geometry">
            <mxPoint x="-24" y="-9" as="offset" />
          </mxGeometry>
        </mxCell>
        <mxCell id="VlXXKCNlBHuYCvkseMXM-43" value="" style="endArrow=none;html=1;rounded=0;entryX=1;entryY=0;entryDx=0;entryDy=0;exitX=0.5;exitY=1;exitDx=0;exitDy=0;" parent="1" source="VlXXKCNlBHuYCvkseMXM-28" target="VlXXKCNlBHuYCvkseMXM-22" edge="1">
          <mxGeometry width="50" height="50" relative="1" as="geometry">
            <mxPoint x="1241" y="700" as="sourcePoint" />
            <mxPoint x="1220" y="725" as="targetPoint" />
          </mxGeometry>
        </mxCell>
        <mxCell id="VlXXKCNlBHuYCvkseMXM-44" value="2&lt;br&gt;1GE" style="edgeLabel;html=1;align=center;verticalAlign=middle;resizable=0;points=[];" parent="VlXXKCNlBHuYCvkseMXM-43" vertex="1" connectable="0">
          <mxGeometry x="-0.3351" y="1" relative="1" as="geometry">
            <mxPoint x="-11" y="13" as="offset" />
          </mxGeometry>
        </mxCell>
        <mxCell id="VlXXKCNlBHuYCvkseMXM-45" value="" style="endArrow=none;html=1;rounded=0;entryX=1;entryY=0.5;entryDx=0;entryDy=0;exitX=0.5;exitY=1;exitDx=0;exitDy=0;" parent="1" source="VlXXKCNlBHuYCvkseMXM-27" target="VlXXKCNlBHuYCvkseMXM-23" edge="1">
          <mxGeometry width="50" height="50" relative="1" as="geometry">
            <mxPoint x="1326" y="700" as="sourcePoint" />
            <mxPoint x="1220" y="930" as="targetPoint" />
          </mxGeometry>
        </mxCell>
        <mxCell id="VlXXKCNlBHuYCvkseMXM-46" value="4&lt;br&gt;1GE" style="edgeLabel;html=1;align=center;verticalAlign=middle;resizable=0;points=[];" parent="VlXXKCNlBHuYCvkseMXM-45" vertex="1" connectable="0">
          <mxGeometry x="-0.3351" y="1" relative="1" as="geometry">
            <mxPoint x="1" y="-2" as="offset" />
          </mxGeometry>
        </mxCell>
        <mxCell id="T9wsf88VcINZ4BIKIiR8-13" value="RPC=8&lt;br style=&quot;border-color: var(--border-color);&quot;&gt;Sw2" style="whiteSpace=wrap;html=1;aspect=fixed;" parent="1" vertex="1">
          <mxGeometry x="405.29" y="729.5500000000001" width="150" height="150" as="geometry" />
        </mxCell>
        <mxCell id="T9wsf88VcINZ4BIKIiR8-14" value="1" style="whiteSpace=wrap;html=1;aspect=fixed;" parent="1" vertex="1">
          <mxGeometry x="405.29" y="729.5500000000001" width="30" height="30" as="geometry" />
        </mxCell>
        <mxCell id="T9wsf88VcINZ4BIKIiR8-15" value="2" style="whiteSpace=wrap;html=1;aspect=fixed;" parent="1" vertex="1">
          <mxGeometry x="525.2900000000001" y="729.5500000000001" width="30" height="30" as="geometry" />
        </mxCell>
        <mxCell id="T9wsf88VcINZ4BIKIiR8-16" value="RPC=8&lt;br style=&quot;border-color: var(--border-color);&quot;&gt;Sw1" style="whiteSpace=wrap;html=1;aspect=fixed;" parent="1" vertex="1">
          <mxGeometry x="405.29" y="934.95" width="150" height="150" as="geometry" />
        </mxCell>
        <mxCell id="T9wsf88VcINZ4BIKIiR8-17" value="1" style="whiteSpace=wrap;html=1;aspect=fixed;" parent="1" vertex="1">
          <mxGeometry x="405.29" y="1020" width="30" height="30" as="geometry" />
        </mxCell>
        <mxCell id="T9wsf88VcINZ4BIKIiR8-18" value="2" style="whiteSpace=wrap;html=1;aspect=fixed;" parent="1" vertex="1">
          <mxGeometry x="405.29" y="934.95" width="30" height="30" as="geometry" />
        </mxCell>
        <mxCell id="T9wsf88VcINZ4BIKIiR8-19" value="3" style="whiteSpace=wrap;html=1;aspect=fixed;" parent="1" vertex="1">
          <mxGeometry x="525.2900000000001" y="934.95" width="30" height="30" as="geometry" />
        </mxCell>
        <mxCell id="T9wsf88VcINZ4BIKIiR8-20" value="4" style="whiteSpace=wrap;html=1;aspect=fixed;" parent="1" vertex="1">
          <mxGeometry x="525.0000000000001" y="1020" width="30" height="30" as="geometry" />
        </mxCell>
        <mxCell id="T9wsf88VcINZ4BIKIiR8-27" value="6" style="whiteSpace=wrap;html=1;aspect=fixed;" parent="1" vertex="1">
          <mxGeometry x="320" y="640" width="30" height="30" as="geometry" />
        </mxCell>
        <mxCell id="T9wsf88VcINZ4BIKIiR8-28" value="7" style="whiteSpace=wrap;html=1;aspect=fixed;" parent="1" vertex="1">
          <mxGeometry x="273" y="640" width="30" height="30" as="geometry" />
        </mxCell>
        <mxCell id="T9wsf88VcINZ4BIKIiR8-29" value="8" style="whiteSpace=wrap;html=1;aspect=fixed;" parent="1" vertex="1">
          <mxGeometry x="220" y="640" width="30" height="30" as="geometry" />
        </mxCell>
        <mxCell id="T9wsf88VcINZ4BIKIiR8-30" value="6" style="whiteSpace=wrap;html=1;aspect=fixed;" parent="1" vertex="1">
          <mxGeometry x="620" y="640" width="30" height="30" as="geometry" />
        </mxCell>
        <mxCell id="T9wsf88VcINZ4BIKIiR8-31" value="5" style="whiteSpace=wrap;html=1;aspect=fixed;" parent="1" vertex="1">
          <mxGeometry x="670" y="640" width="30" height="30" as="geometry" />
        </mxCell>
        <mxCell id="T9wsf88VcINZ4BIKIiR8-32" value="4" style="whiteSpace=wrap;html=1;aspect=fixed;" parent="1" vertex="1">
          <mxGeometry x="720" y="640" width="30" height="30" as="geometry" />
        </mxCell>
        <mxCell id="T9wsf88VcINZ4BIKIiR8-34" value="" style="endArrow=none;dashed=1;html=1;rounded=0;entryX=0;entryY=0;entryDx=0;entryDy=0;exitX=1;exitY=1;exitDx=0;exitDy=0;" parent="1" source="T9wsf88VcINZ4BIKIiR8-27" target="T9wsf88VcINZ4BIKIiR8-13" edge="1">
          <mxGeometry width="50" height="50" relative="1" as="geometry">
            <mxPoint x="380" y="625" as="sourcePoint" />
            <mxPoint x="611" y="625" as="targetPoint" />
          </mxGeometry>
        </mxCell>
        <mxCell id="T9wsf88VcINZ4BIKIiR8-35" value="&lt;div&gt;5&lt;/div&gt;&lt;div&gt;10GE&lt;/div&gt;" style="edgeLabel;html=1;align=center;verticalAlign=middle;resizable=0;points=[];" parent="T9wsf88VcINZ4BIKIiR8-34" vertex="1" connectable="0">
          <mxGeometry x="-0.1018" y="-1" relative="1" as="geometry">
            <mxPoint x="8" y="-1" as="offset" />
          </mxGeometry>
        </mxCell>
        <mxCell id="T9wsf88VcINZ4BIKIiR8-36" value="" style="endArrow=none;html=1;rounded=0;entryX=0;entryY=1;entryDx=0;entryDy=0;exitX=1;exitY=0;exitDx=0;exitDy=0;" parent="1" source="T9wsf88VcINZ4BIKIiR8-13" target="T9wsf88VcINZ4BIKIiR8-30" edge="1">
          <mxGeometry width="50" height="50" relative="1" as="geometry">
            <mxPoint x="380" y="585" as="sourcePoint" />
            <mxPoint x="611" y="585" as="targetPoint" />
          </mxGeometry>
        </mxCell>
        <mxCell id="T9wsf88VcINZ4BIKIiR8-37" value="&lt;div&gt;6&lt;br&gt;1GE&lt;br&gt;&lt;/div&gt;" style="edgeLabel;html=1;align=center;verticalAlign=middle;resizable=0;points=[];" parent="T9wsf88VcINZ4BIKIiR8-36" vertex="1" connectable="0">
          <mxGeometry x="-0.0125" y="-1" relative="1" as="geometry">
            <mxPoint y="-1" as="offset" />
          </mxGeometry>
        </mxCell>
        <mxCell id="T9wsf88VcINZ4BIKIiR8-38" value="" style="endArrow=none;dashed=1;html=1;rounded=0;entryX=0.5;entryY=1;entryDx=0;entryDy=0;exitX=0;exitY=0;exitDx=0;exitDy=0;" parent="1" source="T9wsf88VcINZ4BIKIiR8-18" target="T9wsf88VcINZ4BIKIiR8-28" edge="1">
          <mxGeometry width="50" height="50" relative="1" as="geometry">
            <mxPoint x="1070" y="985" as="sourcePoint" />
            <mxPoint x="905" y="700" as="targetPoint" />
          </mxGeometry>
        </mxCell>
        <mxCell id="T9wsf88VcINZ4BIKIiR8-39" value="&lt;div&gt;1&lt;/div&gt;&lt;div&gt;10GE&lt;/div&gt;" style="edgeLabel;html=1;align=center;verticalAlign=middle;resizable=0;points=[];" parent="T9wsf88VcINZ4BIKIiR8-38" vertex="1" connectable="0">
          <mxGeometry x="-0.1018" y="-1" relative="1" as="geometry">
            <mxPoint x="8" y="-1" as="offset" />
          </mxGeometry>
        </mxCell>
        <mxCell id="T9wsf88VcINZ4BIKIiR8-40" value="" style="endArrow=none;dashed=1;html=1;rounded=0;entryX=0.5;entryY=1;entryDx=0;entryDy=0;exitX=0;exitY=0.5;exitDx=0;exitDy=0;" parent="1" source="T9wsf88VcINZ4BIKIiR8-17" target="T9wsf88VcINZ4BIKIiR8-29" edge="1">
          <mxGeometry width="50" height="50" relative="1" as="geometry">
            <mxPoint x="415" y="945" as="sourcePoint" />
            <mxPoint x="298" y="680" as="targetPoint" />
          </mxGeometry>
        </mxCell>
        <mxCell id="T9wsf88VcINZ4BIKIiR8-41" value="&lt;div&gt;3&lt;/div&gt;&lt;div&gt;10GE&lt;/div&gt;" style="edgeLabel;html=1;align=center;verticalAlign=middle;resizable=0;points=[];" parent="T9wsf88VcINZ4BIKIiR8-40" vertex="1" connectable="0">
          <mxGeometry x="-0.1018" y="-1" relative="1" as="geometry">
            <mxPoint x="8" y="-1" as="offset" />
          </mxGeometry>
        </mxCell>
        <mxCell id="T9wsf88VcINZ4BIKIiR8-43" value="" style="endArrow=none;html=1;rounded=0;entryX=0.5;entryY=1;entryDx=0;entryDy=0;exitX=1;exitY=0;exitDx=0;exitDy=0;" parent="1" source="T9wsf88VcINZ4BIKIiR8-19" target="T9wsf88VcINZ4BIKIiR8-31" edge="1">
          <mxGeometry width="50" height="50" relative="1" as="geometry">
            <mxPoint x="565" y="740" as="sourcePoint" />
            <mxPoint x="610" y="680" as="targetPoint" />
          </mxGeometry>
        </mxCell>
        <mxCell id="T9wsf88VcINZ4BIKIiR8-44" value="&lt;div&gt;2&lt;/div&gt;&lt;div&gt;1GE&lt;/div&gt;" style="edgeLabel;html=1;align=center;verticalAlign=middle;resizable=0;points=[];" parent="T9wsf88VcINZ4BIKIiR8-43" vertex="1" connectable="0">
          <mxGeometry x="-0.0125" y="-1" relative="1" as="geometry">
            <mxPoint y="-1" as="offset" />
          </mxGeometry>
        </mxCell>
        <mxCell id="T9wsf88VcINZ4BIKIiR8-45" value="" style="endArrow=none;html=1;rounded=0;entryX=0.5;entryY=1;entryDx=0;entryDy=0;exitX=1;exitY=0.5;exitDx=0;exitDy=0;" parent="1" source="T9wsf88VcINZ4BIKIiR8-20" target="T9wsf88VcINZ4BIKIiR8-32" edge="1">
          <mxGeometry width="50" height="50" relative="1" as="geometry">
            <mxPoint x="565" y="945" as="sourcePoint" />
            <mxPoint x="695" y="680" as="targetPoint" />
          </mxGeometry>
        </mxCell>
        <mxCell id="T9wsf88VcINZ4BIKIiR8-46" value="&lt;div&gt;4&lt;/div&gt;&lt;div&gt;1GE&lt;/div&gt;" style="edgeLabel;html=1;align=center;verticalAlign=middle;resizable=0;points=[];" parent="T9wsf88VcINZ4BIKIiR8-45" vertex="1" connectable="0">
          <mxGeometry x="-0.0125" y="-1" relative="1" as="geometry">
            <mxPoint x="40" y="-11" as="offset" />
          </mxGeometry>
        </mxCell>
        <mxCell id="T9wsf88VcINZ4BIKIiR8-47" value="&lt;font color=&quot;#ff0000&quot;&gt;R&lt;/font&gt;" style="text;html=1;align=center;verticalAlign=middle;resizable=0;points=[];autosize=1;strokeColor=none;fillColor=none;" parent="1" vertex="1">
          <mxGeometry x="530" y="904.95" width="30" height="30" as="geometry" />
        </mxCell>
        <mxCell id="T9wsf88VcINZ4BIKIiR8-48" value="&lt;font color=&quot;#ff0000&quot;&gt;R&lt;/font&gt;" style="text;html=1;align=center;verticalAlign=middle;resizable=0;points=[];autosize=1;strokeColor=none;fillColor=none;" parent="1" vertex="1">
          <mxGeometry x="530" y="699.5500000000001" width="30" height="30" as="geometry" />
        </mxCell>
        <mxCell id="T9wsf88VcINZ4BIKIiR8-58" value="&lt;font color=&quot;#0000ff&quot;&gt;D&lt;/font&gt;" style="text;html=1;align=center;verticalAlign=middle;resizable=0;points=[];autosize=1;strokeColor=none;fillColor=none;" parent="1" vertex="1">
          <mxGeometry x="405.28999999999996" y="700" width="30" height="30" as="geometry" />
        </mxCell>
        <mxCell id="T9wsf88VcINZ4BIKIiR8-59" value="&lt;font color=&quot;#0000ff&quot;&gt;D&lt;/font&gt;" style="text;html=1;align=center;verticalAlign=middle;resizable=0;points=[];autosize=1;strokeColor=none;fillColor=none;" parent="1" vertex="1">
          <mxGeometry x="405.28999999999996" y="904.95" width="30" height="30" as="geometry" />
        </mxCell>
        <mxCell id="T9wsf88VcINZ4BIKIiR8-60" value="&lt;font color=&quot;#0000ff&quot;&gt;D&lt;/font&gt;" style="text;html=1;align=center;verticalAlign=middle;resizable=0;points=[];autosize=1;strokeColor=none;fillColor=none;" parent="1" vertex="1">
          <mxGeometry x="375.28999999999996" y="1030" width="30" height="30" as="geometry" />
        </mxCell>
        <mxCell id="T9wsf88VcINZ4BIKIiR8-61" value="X" style="text;html=1;align=center;verticalAlign=middle;resizable=0;points=[];autosize=1;strokeColor=none;fillColor=none;rotation=0;" parent="1" vertex="1">
          <mxGeometry x="555.29" y="1030" width="30" height="30" as="geometry" />
        </mxCell>
        <mxCell id="CKyoXwZi55AU3TEqxdaZ-1" value="&lt;font color=&quot;#0000ff&quot;&gt;D&lt;/font&gt;" style="text;html=1;align=center;verticalAlign=middle;resizable=0;points=[];autosize=1;strokeColor=none;fillColor=none;" parent="1" vertex="1">
          <mxGeometry x="229.99999999999997" y="400" width="30" height="30" as="geometry" />
        </mxCell>
        <mxCell id="CKyoXwZi55AU3TEqxdaZ-2" value="&lt;font color=&quot;#0000ff&quot;&gt;D&lt;/font&gt;" style="text;html=1;align=center;verticalAlign=middle;resizable=0;points=[];autosize=1;strokeColor=none;fillColor=none;" parent="1" vertex="1">
          <mxGeometry x="270" y="400" width="30" height="30" as="geometry" />
        </mxCell>
        <mxCell id="CKyoXwZi55AU3TEqxdaZ-3" value="&lt;font color=&quot;#0000ff&quot;&gt;D&lt;/font&gt;" style="text;html=1;align=center;verticalAlign=middle;resizable=0;points=[];autosize=1;strokeColor=none;fillColor=none;" parent="1" vertex="1">
          <mxGeometry x="320" y="400" width="30" height="30" as="geometry" />
        </mxCell>
        <mxCell id="CKyoXwZi55AU3TEqxdaZ-4" value="&lt;font color=&quot;#0000ff&quot;&gt;D&lt;/font&gt;" style="text;html=1;align=center;verticalAlign=middle;resizable=0;points=[];autosize=1;strokeColor=none;fillColor=none;" parent="1" vertex="1">
          <mxGeometry x="370" y="340" width="30" height="30" as="geometry" />
        </mxCell>
        <mxCell id="CKyoXwZi55AU3TEqxdaZ-5" value="&lt;font color=&quot;#0000ff&quot;&gt;D&lt;/font&gt;" style="text;html=1;align=center;verticalAlign=middle;resizable=0;points=[];autosize=1;strokeColor=none;fillColor=none;" parent="1" vertex="1">
          <mxGeometry x="370" y="300" width="30" height="30" as="geometry" />
        </mxCell>
        <mxCell id="CKyoXwZi55AU3TEqxdaZ-6" value="&lt;font color=&quot;#0000ff&quot;&gt;D&lt;/font&gt;" style="text;html=1;align=center;verticalAlign=middle;resizable=0;points=[];autosize=1;strokeColor=none;fillColor=none;" parent="1" vertex="1">
          <mxGeometry x="360" y="230" width="30" height="30" as="geometry" />
        </mxCell>
        <mxCell id="CKyoXwZi55AU3TEqxdaZ-7" value="&lt;font color=&quot;#0000ff&quot;&gt;D&lt;/font&gt;" style="text;html=1;align=center;verticalAlign=middle;resizable=0;points=[];autosize=1;strokeColor=none;fillColor=none;" parent="1" vertex="1">
          <mxGeometry x="280" y="220" width="30" height="30" as="geometry" />
        </mxCell>
        <mxCell id="CKyoXwZi55AU3TEqxdaZ-8" value="&lt;font color=&quot;#0000ff&quot;&gt;D&lt;/font&gt;" style="text;html=1;align=center;verticalAlign=middle;resizable=0;points=[];autosize=1;strokeColor=none;fillColor=none;" parent="1" vertex="1">
          <mxGeometry x="220" y="220" width="30" height="30" as="geometry" />
        </mxCell>
        <mxCell id="CKyoXwZi55AU3TEqxdaZ-9" value="X" style="text;html=1;align=center;verticalAlign=middle;resizable=0;points=[];autosize=1;strokeColor=none;fillColor=none;rotation=0;" parent="1" vertex="1">
          <mxGeometry x="330" y="670" width="30" height="30" as="geometry" />
        </mxCell>
        <mxCell id="CKyoXwZi55AU3TEqxdaZ-10" value="X" style="text;html=1;align=center;verticalAlign=middle;resizable=0;points=[];autosize=1;strokeColor=none;fillColor=none;rotation=0;" parent="1" vertex="1">
          <mxGeometry x="260" y="669.55" width="30" height="30" as="geometry" />
        </mxCell>
        <mxCell id="CKyoXwZi55AU3TEqxdaZ-11" value="X" style="text;html=1;align=center;verticalAlign=middle;resizable=0;points=[];autosize=1;strokeColor=none;fillColor=none;rotation=0;" parent="1" vertex="1">
          <mxGeometry x="210" y="670" width="30" height="30" as="geometry" />
        </mxCell>
        <mxCell id="CKyoXwZi55AU3TEqxdaZ-13" value="&lt;font color=&quot;#ff0000&quot;&gt;R&lt;/font&gt;" style="text;html=1;align=center;verticalAlign=middle;resizable=0;points=[];autosize=1;strokeColor=none;fillColor=none;" parent="1" vertex="1">
          <mxGeometry x="370" y="550" width="30" height="30" as="geometry" />
        </mxCell>
        <mxCell id="CKyoXwZi55AU3TEqxdaZ-14" value="X" style="text;html=1;align=center;verticalAlign=middle;resizable=0;points=[];autosize=1;strokeColor=none;fillColor=none;rotation=0;" parent="1" vertex="1">
          <mxGeometry x="370" y="620" width="30" height="30" as="geometry" />
        </mxCell>
        <mxCell id="CKyoXwZi55AU3TEqxdaZ-15" value="X" style="text;html=1;align=center;verticalAlign=middle;resizable=0;points=[];autosize=1;strokeColor=none;fillColor=none;rotation=0;" parent="1" vertex="1">
          <mxGeometry x="320" y="490" width="30" height="30" as="geometry" />
        </mxCell>
        <mxCell id="CKyoXwZi55AU3TEqxdaZ-16" value="X" style="text;html=1;align=center;verticalAlign=middle;resizable=0;points=[];autosize=1;strokeColor=none;fillColor=none;rotation=0;" parent="1" vertex="1">
          <mxGeometry x="270" y="490" width="30" height="30" as="geometry" />
        </mxCell>
        <mxCell id="CKyoXwZi55AU3TEqxdaZ-22" value="X" style="text;html=1;align=center;verticalAlign=middle;resizable=0;points=[];autosize=1;strokeColor=none;fillColor=none;rotation=0;" parent="1" vertex="1">
          <mxGeometry x="230" y="490" width="30" height="30" as="geometry" />
        </mxCell>
        <mxCell id="CKyoXwZi55AU3TEqxdaZ-23" value="&lt;font color=&quot;#0000ff&quot;&gt;D&lt;/font&gt;" style="text;html=1;align=center;verticalAlign=middle;resizable=0;points=[];autosize=1;strokeColor=none;fillColor=none;" parent="1" vertex="1">
          <mxGeometry x="570" y="620" width="30" height="30" as="geometry" />
        </mxCell>
        <mxCell id="CKyoXwZi55AU3TEqxdaZ-24" value="&lt;font color=&quot;#0000ff&quot;&gt;D&lt;/font&gt;" style="text;html=1;align=center;verticalAlign=middle;resizable=0;points=[];autosize=1;strokeColor=none;fillColor=none;" parent="1" vertex="1">
          <mxGeometry x="650" y="670" width="30" height="30" as="geometry" />
        </mxCell>
        <mxCell id="CKyoXwZi55AU3TEqxdaZ-25" value="&lt;font color=&quot;#0000ff&quot;&gt;D&lt;/font&gt;" style="text;html=1;align=center;verticalAlign=middle;resizable=0;points=[];autosize=1;strokeColor=none;fillColor=none;" parent="1" vertex="1">
          <mxGeometry x="700" y="670" width="30" height="30" as="geometry" />
        </mxCell>
        <mxCell id="CKyoXwZi55AU3TEqxdaZ-28" value="&lt;font color=&quot;#0000ff&quot;&gt;D&lt;/font&gt;" style="text;html=1;align=center;verticalAlign=middle;resizable=0;points=[];autosize=1;strokeColor=none;fillColor=none;" parent="1" vertex="1">
          <mxGeometry x="570" y="660" width="30" height="30" as="geometry" />
        </mxCell>
        <mxCell id="CKyoXwZi55AU3TEqxdaZ-29" value="&lt;font color=&quot;#0000ff&quot;&gt;D&lt;/font&gt;" style="text;html=1;align=center;verticalAlign=middle;resizable=0;points=[];autosize=1;strokeColor=none;fillColor=none;" parent="1" vertex="1">
          <mxGeometry x="570" y="550" width="30" height="30" as="geometry" />
        </mxCell>
        <mxCell id="CKyoXwZi55AU3TEqxdaZ-30" value="&lt;font color=&quot;#ff0000&quot;&gt;R&lt;/font&gt;" style="text;html=1;align=center;verticalAlign=middle;resizable=0;points=[];autosize=1;strokeColor=none;fillColor=none;" parent="1" vertex="1">
          <mxGeometry x="620" y="490" width="30" height="30" as="geometry" />
        </mxCell>
        <mxCell id="CKyoXwZi55AU3TEqxdaZ-31" value="&lt;font color=&quot;#0000ff&quot;&gt;D&lt;/font&gt;" style="text;html=1;align=center;verticalAlign=middle;resizable=0;points=[];autosize=1;strokeColor=none;fillColor=none;" parent="1" vertex="1">
          <mxGeometry x="670" y="490" width="30" height="30" as="geometry" />
        </mxCell>
        <mxCell id="CKyoXwZi55AU3TEqxdaZ-32" value="&lt;font color=&quot;#0000ff&quot;&gt;D&lt;/font&gt;" style="text;html=1;align=center;verticalAlign=middle;resizable=0;points=[];autosize=1;strokeColor=none;fillColor=none;" parent="1" vertex="1">
          <mxGeometry x="710" y="490" width="30" height="30" as="geometry" />
        </mxCell>
        <mxCell id="CKyoXwZi55AU3TEqxdaZ-33" value="&lt;font color=&quot;#0000ff&quot;&gt;D&lt;/font&gt;" style="text;html=1;align=center;verticalAlign=middle;resizable=0;points=[];autosize=1;strokeColor=none;fillColor=none;" parent="1" vertex="1">
          <mxGeometry x="620" y="400" width="30" height="30" as="geometry" />
        </mxCell>
        <mxCell id="CKyoXwZi55AU3TEqxdaZ-34" value="&lt;font color=&quot;#0000ff&quot;&gt;D&lt;/font&gt;" style="text;html=1;align=center;verticalAlign=middle;resizable=0;points=[];autosize=1;strokeColor=none;fillColor=none;" parent="1" vertex="1">
          <mxGeometry x="710" y="220" width="30" height="30" as="geometry" />
        </mxCell>
        <mxCell id="CKyoXwZi55AU3TEqxdaZ-35" value="&lt;font color=&quot;#0000ff&quot;&gt;D&lt;/font&gt;" style="text;html=1;align=center;verticalAlign=middle;resizable=0;points=[];autosize=1;strokeColor=none;fillColor=none;" parent="1" vertex="1">
          <mxGeometry x="660" y="220" width="30" height="30" as="geometry" />
        </mxCell>
        <mxCell id="CKyoXwZi55AU3TEqxdaZ-36" value="&lt;font color=&quot;#0000ff&quot;&gt;D&lt;/font&gt;" style="text;html=1;align=center;verticalAlign=middle;resizable=0;points=[];autosize=1;strokeColor=none;fillColor=none;" parent="1" vertex="1">
          <mxGeometry x="580" y="230" width="30" height="30" as="geometry" />
        </mxCell>
        <mxCell id="CKyoXwZi55AU3TEqxdaZ-37" value="&lt;font color=&quot;#ff0000&quot;&gt;R&lt;/font&gt;" style="text;html=1;align=center;verticalAlign=middle;resizable=0;points=[];autosize=1;strokeColor=none;fillColor=none;" parent="1" vertex="1">
          <mxGeometry x="570" y="280" width="30" height="30" as="geometry" />
        </mxCell>
        <mxCell id="CKyoXwZi55AU3TEqxdaZ-38" value="X" style="text;html=1;align=center;verticalAlign=middle;resizable=0;points=[];autosize=1;strokeColor=none;fillColor=none;rotation=0;" parent="1" vertex="1">
          <mxGeometry x="570" y="350" width="30" height="30" as="geometry" />
        </mxCell>
        <mxCell id="CKyoXwZi55AU3TEqxdaZ-41" value="X" style="text;html=1;align=center;verticalAlign=middle;resizable=0;points=[];autosize=1;strokeColor=none;fillColor=none;rotation=0;" parent="1" vertex="1">
          <mxGeometry x="680" y="400" width="30" height="30" as="geometry" />
        </mxCell>
        <mxCell id="CKyoXwZi55AU3TEqxdaZ-45" value="X" style="text;html=1;align=center;verticalAlign=middle;resizable=0;points=[];autosize=1;strokeColor=none;fillColor=none;rotation=0;" parent="1" vertex="1">
          <mxGeometry x="710" y="400" width="30" height="30" as="geometry" />
        </mxCell>
        <mxCell id="CKyoXwZi55AU3TEqxdaZ-46" value="&lt;font color=&quot;#ff0000&quot;&gt;R&lt;/font&gt;" style="text;html=1;align=center;verticalAlign=middle;resizable=0;points=[];autosize=1;strokeColor=none;fillColor=none;" parent="1" vertex="1">
          <mxGeometry x="370" y="70" width="30" height="30" as="geometry" />
        </mxCell>
        <mxCell id="CKyoXwZi55AU3TEqxdaZ-47" value="&lt;font color=&quot;#0000ff&quot;&gt;D&lt;/font&gt;" style="text;html=1;align=center;verticalAlign=middle;resizable=0;points=[];autosize=1;strokeColor=none;fillColor=none;" parent="1" vertex="1">
          <mxGeometry x="370" y="30" width="30" height="30" as="geometry" />
        </mxCell>
        <mxCell id="CKyoXwZi55AU3TEqxdaZ-48" value="X" style="text;html=1;align=center;verticalAlign=middle;resizable=0;points=[];autosize=1;strokeColor=none;fillColor=none;rotation=0;" parent="1" vertex="1">
          <mxGeometry x="230" y="160" width="30" height="30" as="geometry" />
        </mxCell>
        <mxCell id="CKyoXwZi55AU3TEqxdaZ-49" value="X" style="text;html=1;align=center;verticalAlign=middle;resizable=0;points=[];autosize=1;strokeColor=none;fillColor=none;rotation=0;" parent="1" vertex="1">
          <mxGeometry x="370" y="140" width="30" height="30" as="geometry" />
        </mxCell>
        <mxCell id="CKyoXwZi55AU3TEqxdaZ-50" value="&lt;font color=&quot;#ff0000&quot;&gt;R&lt;/font&gt;" style="text;html=1;align=center;verticalAlign=middle;resizable=0;points=[];autosize=1;strokeColor=none;fillColor=none;" parent="1" vertex="1">
          <mxGeometry x="710" y="160" width="30" height="30" as="geometry" />
        </mxCell>
        <mxCell id="CKyoXwZi55AU3TEqxdaZ-51" value="X" style="text;html=1;align=center;verticalAlign=middle;resizable=0;points=[];autosize=1;strokeColor=none;fillColor=none;rotation=0;" parent="1" vertex="1">
          <mxGeometry x="570" y="30" width="30" height="30" as="geometry" />
        </mxCell>
        <mxCell id="CKyoXwZi55AU3TEqxdaZ-52" value="X" style="text;html=1;align=center;verticalAlign=middle;resizable=0;points=[];autosize=1;strokeColor=none;fillColor=none;rotation=0;" parent="1" vertex="1">
          <mxGeometry x="570" y="70" width="30" height="30" as="geometry" />
        </mxCell>
        <mxCell id="CKyoXwZi55AU3TEqxdaZ-53" value="X" style="text;html=1;align=center;verticalAlign=middle;resizable=0;points=[];autosize=1;strokeColor=none;fillColor=none;rotation=0;" parent="1" vertex="1">
          <mxGeometry x="570" y="110" width="30" height="30" as="geometry" />
        </mxCell>
      </root>
    </mxGraphModel>
  </diagram>
</mxfile>
